<svg xmlns="http://www.w3.org/2000/svg" width="170" height="117.275" viewBox="0 0 170 117.275"><g transform="translate(-870 -151)"><g transform="translate(747 127)"><g transform="translate(123 24)" fill="#fff" stroke="#5b666a" stroke-linejoin="round" stroke-width="3"><rect width="170" height="116" stroke="none"/><rect x="1.5" y="1.5" width="167" height="113" fill="none"/></g><path d="M-.793-5.229h169.14" transform="translate(123.793 48.5)" fill="none" stroke="#5b666a" stroke-width="3"/></g><g transform="translate(570)"><g transform="translate(417.072 170.561)"><path d="M9.465.262a.373.373,0,0,0-.253.061L5.859,2.668a3.2,3.2,0,0,0-.015-.836A2.077,2.077,0,0,0,5.312.713,2.542,2.542,0,0,0,3.452,0,9.752,9.752,0,0,0,.229.633a.374.374,0,0,0-.174.551.523.523,0,0,0,.6.289A9.033,9.033,0,0,1,3.6.881a1.661,1.661,0,0,1,1.127.364,1.533,1.533,0,0,1,.23,1.341,4.39,4.39,0,0,1-.268.958.49.49,0,0,0,.16.545.452.452,0,0,0,.546.071l3.759-2.63.429,4.3a.561.561,0,0,0,.3.428.407.407,0,0,0,.465-.036l2.915-2.706.987,4.83a.569.569,0,0,0,.323.394.4.4,0,0,0,.444-.053l2.951-2.862.464,4.65a.562.562,0,0,0,.31.431.4.4,0,0,0,.467-.046l3.125-3.1.322,4.781A.56.56,0,0,0,23,12.99a.385.385,0,0,0,.48-.1,22.113,22.113,0,0,1,1.59-1.9A6.8,6.8,0,0,1,28,8.849a1.49,1.49,0,0,1,1.045.164,3.064,3.064,0,0,1,.866.745,5.992,5.992,0,0,1,.806,1.275.533.533,0,0,0,.585.323.366.366,0,0,0,.211-.532,7.132,7.132,0,0,0-.976-1.548,4.2,4.2,0,0,0-1.2-1.021,2.414,2.414,0,0,0-1.67-.27,7.251,7.251,0,0,0-3.292,2.342c-.346.369-.657.728-.912,1.037l-.31-4.594a.559.559,0,0,0-.3-.442.4.4,0,0,0-.474.043L19.212,9.506,18.749,4.87a.561.561,0,0,0-.308-.43.4.4,0,0,0-.467.042l-3.04,2.948-.983-4.809a.569.569,0,0,0-.319-.392.4.4,0,0,0-.443.047L10.362,4.9,9.946.743A.559.559,0,0,0,9.666.328.508.508,0,0,0,9.465.262Z" transform="translate(0 22.311) rotate(-45)" fill="#acb1b3"/><path d="M.12,0A.135.135,0,0,0,.038.027a.086.086,0,0,0,0,.139L4.124,3.711a.14.14,0,0,0,.17,0,.086.086,0,0,0,0-.139L.208.031A.134.134,0,0,0,.12,0Z" transform="translate(7.512 15.614)" fill="#fff"/><path d="M.361,0a.112.112,0,0,0-.12.095L0,5.018a.109.109,0,0,0,.115.1.113.113,0,0,0,.125-.094L.481.1A.109.109,0,0,0,.366,0Z" transform="translate(11.603 14.236)" fill="#fff"/><path d="M.12,0A.133.133,0,0,0,.029.035.087.087,0,0,0,.042.174L4.855,3.522a.14.14,0,0,0,.17-.011.087.087,0,0,0-.014-.139L.2.023A.137.137,0,0,0,.12,0Z" transform="translate(11.844 14.236)" fill="#fff"/><path d="M1.083,0A.115.115,0,0,0,.964.085L0,5.994A.1.1,0,0,0,.1,6.1.118.118,0,0,0,.24,6.02L1.2.111A.1.1,0,0,0,1.1,0Z" transform="translate(6.549 15.614)" fill="#fff"/><path d="M.12,0A.111.111,0,0,0,0,.1V5.219a.111.111,0,0,0,.12.1.111.111,0,0,0,.12-.1V.1A.111.111,0,0,0,.12,0Z" transform="translate(16.656 12.463)" fill="#fff"/><path d="M.12,0A.135.135,0,0,0,.035.029a.086.086,0,0,0,0,.139L4.607,3.91a.14.14,0,0,0,.17,0,.086.086,0,0,0,0-.139L.205.029A.135.135,0,0,0,.12,0Z" transform="translate(16.656 12.463)" fill="#fff"/><path d="M.12,0A.111.111,0,0,0,0,.1V5.613a.111.111,0,0,0,.12.1.111.111,0,0,0,.12-.1V.1A.111.111,0,0,0,.12,0Z" transform="translate(21.229 10.691)" fill="#fff"/><path d="M.12,0A.136.136,0,0,0,.04.025.087.087,0,0,0,.031.164L4.362,4.1a.14.14,0,0,0,.17.007.087.087,0,0,0,.009-.139L.21.033A.133.133,0,0,0,.12,0Z" transform="translate(21.229 10.691)" fill="#fff"/></g></g><g transform="translate(570)"><g transform="matrix(-0.966, -0.259, 0.259, -0.966, 447.524, 215.63)"><path d="M9.465.262a.373.373,0,0,0-.253.061L5.859,2.668a3.2,3.2,0,0,0-.015-.836A2.077,2.077,0,0,0,5.312.713,2.542,2.542,0,0,0,3.452,0,9.752,9.752,0,0,0,.229.633a.374.374,0,0,0-.174.551.523.523,0,0,0,.6.289A9.033,9.033,0,0,1,3.6.881a1.661,1.661,0,0,1,1.127.364,1.533,1.533,0,0,1,.23,1.341,4.39,4.39,0,0,1-.268.958.49.49,0,0,0,.16.545.452.452,0,0,0,.546.071l3.759-2.63.429,4.3a.561.561,0,0,0,.3.428.407.407,0,0,0,.465-.036l2.915-2.706.987,4.83a.569.569,0,0,0,.323.394.4.4,0,0,0,.444-.053l2.951-2.862.464,4.65a.562.562,0,0,0,.31.431.4.4,0,0,0,.467-.046l3.125-3.1.322,4.781A.56.56,0,0,0,23,12.99a.385.385,0,0,0,.48-.1,22.113,22.113,0,0,1,1.59-1.9A6.8,6.8,0,0,1,28,8.849a1.49,1.49,0,0,1,1.045.164,3.064,3.064,0,0,1,.866.745,5.992,5.992,0,0,1,.806,1.275.533.533,0,0,0,.585.323.366.366,0,0,0,.211-.532,7.132,7.132,0,0,0-.976-1.548,4.2,4.2,0,0,0-1.2-1.021,2.414,2.414,0,0,0-1.67-.27,7.251,7.251,0,0,0-3.292,2.342c-.346.369-.657.728-.912,1.037l-.31-4.594a.559.559,0,0,0-.3-.442.4.4,0,0,0-.474.043L19.212,9.506,18.749,4.87a.561.561,0,0,0-.308-.43.4.4,0,0,0-.467.042l-3.04,2.948-.983-4.809a.569.569,0,0,0-.319-.392.4.4,0,0,0-.443.047L10.362,4.9,9.946.743A.559.559,0,0,0,9.666.328.508.508,0,0,0,9.465.262Z" transform="translate(0 22.311) rotate(-45)" fill="#acb1b3"/><path d="M.12,0A.135.135,0,0,0,.038.027a.086.086,0,0,0,0,.139L4.124,3.711a.14.14,0,0,0,.17,0,.086.086,0,0,0,0-.139L.208.031A.134.134,0,0,0,.12,0Z" transform="translate(7.512 15.614)" fill="#fff"/><path d="M.361,0a.112.112,0,0,0-.12.095L0,5.018a.109.109,0,0,0,.115.1.113.113,0,0,0,.125-.094L.481.1A.109.109,0,0,0,.366,0Z" transform="translate(11.603 14.236)" fill="#fff"/><path d="M.12,0A.133.133,0,0,0,.029.035.087.087,0,0,0,.042.174L4.855,3.522a.14.14,0,0,0,.17-.011.087.087,0,0,0-.014-.139L.2.023A.137.137,0,0,0,.12,0Z" transform="translate(11.844 14.236)" fill="#fff"/><path d="M1.083,0A.115.115,0,0,0,.964.085L0,5.994A.1.1,0,0,0,.1,6.1.118.118,0,0,0,.24,6.02L1.2.111A.1.1,0,0,0,1.1,0Z" transform="translate(6.549 15.614)" fill="#fff"/><path d="M.12,0A.111.111,0,0,0,0,.1V5.219a.111.111,0,0,0,.12.1.111.111,0,0,0,.12-.1V.1A.111.111,0,0,0,.12,0Z" transform="translate(16.656 12.463)" fill="#fff"/><path d="M.12,0A.135.135,0,0,0,.035.029a.086.086,0,0,0,0,.139L4.607,3.91a.14.14,0,0,0,.17,0,.086.086,0,0,0,0-.139L.205.029A.135.135,0,0,0,.12,0Z" transform="translate(16.656 12.463)" fill="#fff"/><path d="M.12,0A.111.111,0,0,0,0,.1V5.613a.111.111,0,0,0,.12.1.111.111,0,0,0,.12-.1V.1A.111.111,0,0,0,.12,0Z" transform="translate(21.229 10.691)" fill="#fff"/><path d="M.12,0A.136.136,0,0,0,.04.025.087.087,0,0,0,.031.164L4.362,4.1a.14.14,0,0,0,.17.007.087.087,0,0,0,.009-.139L.21.033A.133.133,0,0,0,.12,0Z" transform="translate(21.229 10.691)" fill="#fff"/></g></g><g transform="translate(570)"><g transform="translate(312.072 174.561)"><path d="M9.465,12.771a.373.373,0,0,1-.253-.061L5.859,10.364a3.2,3.2,0,0,1-.015.836,2.077,2.077,0,0,1-.532,1.119,2.542,2.542,0,0,1-1.86.711A9.752,9.752,0,0,1,.229,12.4a.374.374,0,0,1-.174-.551.523.523,0,0,1,.6-.289,9.033,9.033,0,0,0,2.952.592,1.661,1.661,0,0,0,1.127-.364,1.533,1.533,0,0,0,.23-1.341,4.39,4.39,0,0,0-.268-.958.49.49,0,0,1,.16-.545A.452.452,0,0,1,5.4,8.874L9.158,11.5l.429-4.3a.561.561,0,0,1,.3-.428.407.407,0,0,1,.465.036L13.272,9.52l.987-4.83a.569.569,0,0,1,.323-.394.4.4,0,0,1,.444.053l2.951,2.862.464-4.65a.562.562,0,0,1,.31-.431.4.4,0,0,1,.467.046l3.125,3.1L22.666.5A.56.56,0,0,1,23,.043a.385.385,0,0,1,.48.1,22.113,22.113,0,0,0,1.59,1.9A6.8,6.8,0,0,0,28,4.183a1.49,1.49,0,0,0,1.045-.164,3.064,3.064,0,0,0,.866-.745A5.992,5.992,0,0,0,30.714,2a.533.533,0,0,1,.585-.323.366.366,0,0,1,.211.532,7.132,7.132,0,0,1-.976,1.548,4.2,4.2,0,0,1-1.2,1.021,2.414,2.414,0,0,1-1.67.27A7.251,7.251,0,0,1,24.369,2.7c-.346-.369-.657-.728-.912-1.037l-.31,4.594a.559.559,0,0,1-.3.442.4.4,0,0,1-.474-.043L19.212,3.526l-.463,4.636a.561.561,0,0,1-.308.43.4.4,0,0,1-.467-.042L14.935,5.6l-.983,4.809a.569.569,0,0,1-.319.392.4.4,0,0,1-.443-.047L10.362,8.131l-.415,4.158a.559.559,0,0,1-.281.415A.508.508,0,0,1,9.465,12.771Z" transform="translate(9.215 0) rotate(45)" fill="#acb1b3"/><path d="M.12,3.742a.135.135,0,0,1-.083-.027.086.086,0,0,1,0-.139L4.124.031a.14.14,0,0,1,.17,0,.086.086,0,0,1,0,.139L.208,3.711A.134.134,0,0,1,.12,3.742Z" transform="translate(7.512 12.17)" fill="#fff"/><path d="M.361,5.121a.112.112,0,0,1-.12-.095L0,.1A.109.109,0,0,1,.116,0,.113.113,0,0,1,.241.095L.481,5.018a.109.109,0,0,1-.115.1Z" transform="translate(11.603 12.17)" fill="#fff"/><path d="M.12,3.545A.133.133,0,0,1,.029,3.51a.087.087,0,0,1,.014-.139L4.855.023a.14.14,0,0,1,.17.011.087.087,0,0,1-.014.139L.2,3.522A.137.137,0,0,1,.12,3.545Z" transform="translate(11.844 13.745)" fill="#fff"/><path d="M1.083,6.105A.115.115,0,0,1,.964,6.02L0,.111A.1.1,0,0,1,.1,0,.118.118,0,0,1,.24.085L1.2,5.994a.1.1,0,0,1-.1.111Z" transform="translate(6.549 9.806)" fill="#fff"/><path d="M.12,5.318a.111.111,0,0,1-.12-.1V.1A.111.111,0,0,1,.12,0a.111.111,0,0,1,.12.1V5.219A.111.111,0,0,1,.12,5.318Z" transform="translate(16.657 13.745)" fill="#fff"/><path d="M.12,3.939A.135.135,0,0,1,.035,3.91a.086.086,0,0,1,0-.139L4.607.029a.14.14,0,0,1,.17,0,.086.086,0,0,1,0,.139L.205,3.91A.135.135,0,0,1,.12,3.939Z" transform="translate(16.657 15.124)" fill="#fff"/><path d="M.12,5.711a.111.111,0,0,1-.12-.1V.1A.111.111,0,0,1,.12,0a.111.111,0,0,1,.12.1V5.613A.111.111,0,0,1,.12,5.711Z" transform="translate(21.229 15.124)" fill="#fff"/><path d="M.12,4.136a.136.136,0,0,1-.08-.025.087.087,0,0,1-.009-.139L4.362.033a.14.14,0,0,1,.17-.007.087.087,0,0,1,.009.139L.21,4.1A.133.133,0,0,1,.12,4.136Z" transform="translate(21.229 16.7)" fill="#fff"/></g></g><g transform="translate(906 158)" fill="#5b666a" stroke="#5b666a" stroke-width="2"><circle cx="4" cy="4" r="4" stroke="none"/><circle cx="4" cy="4" r="3" fill="none"/></g><g transform="translate(892 158)" fill="#5b666a" stroke="#5b666a" stroke-width="2"><circle cx="4" cy="4" r="4" stroke="none"/><circle cx="4" cy="4" r="3" fill="none"/></g><g transform="translate(878 158)" fill="#5b666a" stroke="#5b666a" stroke-width="2"><circle cx="4" cy="4" r="4" stroke="none"/><circle cx="4" cy="4" r="3" fill="none"/></g><g transform="translate(573.351 -8.111)"><g transform="translate(349 183.097)"><path d="M24.724,27.563a1.225,1.225,0,0,1-.678-.257l-9.581-7.378a8.6,8.6,0,0,1,.291,2.153,3.864,3.864,0,0,1-.931,2.68c-.918,1-2.439,1.366-4.52,1.1a31.086,31.086,0,0,1-8.57-2.9,1.221,1.221,0,0,1-.668-1.49,1.019,1.019,0,0,1,1.427-.511,28.877,28.877,0,0,0,7.855,2.693c.943.12,2.189.131,2.766-.494.3-.33.719-1.208.066-3.37a15.034,15.034,0,0,0-1.069-2.578,1.059,1.059,0,0,1,.2-1.343,1.109,1.109,0,0,1,1.382.033l10.741,8.271-.588-10.924a.976.976,0,0,1,.616-.985,1.174,1.174,0,0,1,1.215.276l8.592,8.135L33.91,8.6a.967.967,0,0,1,.679-.889,1.187,1.187,0,0,1,1.167.312L44.5,16.571,43.868,4.751a.976.976,0,0,1,.63-.99,1.18,1.18,0,0,1,1.224.3l9.289,9.24L53.958,1.091A.977.977,0,0,1,54.636.047a1.205,1.205,0,0,1,1.277.437c.021.027,2.134,2.694,4.857,5.545,3.509,3.674,6.416,5.984,8.4,6.679a3.538,3.538,0,0,0,2.634-.011,5,5,0,0,0,1.941-1.581,10.349,10.349,0,0,0,1.577-2.974,1.008,1.008,0,0,1,1.383-.6A1.234,1.234,0,0,1,77.464,9a12.325,12.325,0,0,1-1.908,3.61,6.869,6.869,0,0,1-2.7,2.16,5.715,5.715,0,0,1-4.2.037c-2.4-.839-5.572-3.31-9.423-7.344-1.039-1.089-1.983-2.139-2.764-3.037l1.013,11.736a.979.979,0,0,1-.611,1.02,1.177,1.177,0,0,1-1.241-.3L46.237,7.545l.634,11.785a.976.976,0,0,1-.625.988,1.178,1.178,0,0,1-1.221-.294l-9.01-8.81-.64,12.027a.967.967,0,0,1-.67.886,1.183,1.183,0,0,1-1.161-.295l-8.336-7.892.569,10.57a.978.978,0,0,1-.56.961A1.041,1.041,0,0,1,24.724,27.563Z" transform="translate(19.491 0) rotate(45)" fill="#1065a0"/><path d="M.263,11.136a.248.248,0,0,1-.181-.08.317.317,0,0,1-.011-.414L9.018.092A.245.245,0,0,1,9.39.08.317.317,0,0,1,9.4.494L.454,11.044A.25.25,0,0,1,.263,11.136Z" transform="translate(18.87 26.399)" fill="#fff"/><path d="M.789,15.238a.278.278,0,0,1-.263-.281L0,.3A.282.282,0,0,1,.253,0,.276.276,0,0,1,.526.281l.526,14.652a.282.282,0,0,1-.252.3Z" transform="translate(27.817 26.399)" fill="#fff"/><path d="M.263,10.55a.252.252,0,0,1-.2-.1.317.317,0,0,1,.03-.413L10.618.07A.245.245,0,0,1,10.989.1a.317.317,0,0,1-.03.413L.434,10.48A.247.247,0,0,1,.263,10.55Z" transform="translate(28.343 31.087)" fill="#fff"/><path d="M2.368,18.169a.274.274,0,0,1-.26-.254L0,.332A.289.289,0,0,1,.228,0a.27.27,0,0,1,.3.252l2.1,17.583a.289.289,0,0,1-.226.329Z" transform="translate(16.765 19.366)" fill="#fff"/><path d="M.263,15.824A.279.279,0,0,1,0,15.531V.293A.279.279,0,0,1,.263,0,.279.279,0,0,1,.526.293V15.531A.279.279,0,0,1,.263,15.824Z" transform="translate(38.868 31.087)" fill="#fff"/><path d="M.263,11.722a.249.249,0,0,1-.186-.086.317.317,0,0,1,0-.414l10-11.136a.245.245,0,0,1,.372,0,.317.317,0,0,1,0,.414l-10,11.136A.249.249,0,0,1,.263,11.722Z" transform="translate(38.868 35.19)" fill="#fff"/><path d="M.263,17A.279.279,0,0,1,0,16.7V.293A.279.279,0,0,1,.263,0,.279.279,0,0,1,.526.293V16.7A.279.279,0,0,1,.263,17Z" transform="translate(48.867 35.19)" fill="#fff"/><path d="M.263,12.308a.248.248,0,0,1-.176-.075.317.317,0,0,1-.02-.414L9.54.1A.245.245,0,0,1,9.912.075a.317.317,0,0,1,.02.414L.459,12.211A.251.251,0,0,1,.263,12.308Z" transform="translate(48.867 39.879)" fill="#fff"/></g><g transform="translate(340 202.087)"><path d="M24.724,27.563a1.225,1.225,0,0,1-.678-.257l-9.581-7.378a8.6,8.6,0,0,1,.291,2.153,3.864,3.864,0,0,1-.931,2.68c-.918,1-2.439,1.366-4.52,1.1a31.086,31.086,0,0,1-8.57-2.9,1.221,1.221,0,0,1-.668-1.49,1.019,1.019,0,0,1,1.427-.511,28.877,28.877,0,0,0,7.855,2.693c.943.12,2.189.131,2.766-.494.3-.33.719-1.208.066-3.37a15.034,15.034,0,0,0-1.069-2.578,1.059,1.059,0,0,1,.2-1.343,1.109,1.109,0,0,1,1.382.033l10.741,8.271-.588-10.924a.976.976,0,0,1,.616-.985,1.174,1.174,0,0,1,1.215.276l8.592,8.135L33.91,8.6a.967.967,0,0,1,.679-.889,1.187,1.187,0,0,1,1.167.312L44.5,16.571,43.868,4.751a.976.976,0,0,1,.63-.99,1.18,1.18,0,0,1,1.224.3l9.289,9.24L53.958,1.091A.977.977,0,0,1,54.636.047a1.205,1.205,0,0,1,1.277.437c.021.027,2.134,2.694,4.857,5.545,3.509,3.674,6.416,5.984,8.4,6.679a3.538,3.538,0,0,0,2.634-.011,5,5,0,0,0,1.941-1.581,10.349,10.349,0,0,0,1.577-2.974,1.008,1.008,0,0,1,1.383-.6A1.234,1.234,0,0,1,77.464,9a12.325,12.325,0,0,1-1.908,3.61,6.869,6.869,0,0,1-2.7,2.16,5.715,5.715,0,0,1-4.2.037c-2.4-.839-5.572-3.31-9.423-7.344-1.039-1.089-1.983-2.139-2.764-3.037l1.013,11.736a.979.979,0,0,1-.611,1.02,1.177,1.177,0,0,1-1.241-.3L46.237,7.545l.634,11.785a.976.976,0,0,1-.625.988,1.178,1.178,0,0,1-1.221-.294l-9.01-8.81-.64,12.027a.967.967,0,0,1-.67.886,1.183,1.183,0,0,1-1.161-.295l-8.336-7.892.569,10.57a.978.978,0,0,1-.56.961A1.041,1.041,0,0,1,24.724,27.563Z" transform="translate(54.807 74.299) rotate(-135)" fill="#1065a0"/><path d="M9.209,0A.248.248,0,0,1,9.39.08.317.317,0,0,1,9.4.494L.454,11.044a.245.245,0,0,1-.372.012.317.317,0,0,1-.011-.414L9.018.092A.25.25,0,0,1,9.209,0Z" transform="translate(45.956 36.764)" fill="#fff"/><path d="M.263,0A.278.278,0,0,1,.526.281l.526,14.652a.282.282,0,0,1-.252.3.276.276,0,0,1-.273-.281L0,.3A.282.282,0,0,1,.253,0Z" transform="translate(45.43 32.661)" fill="#fff"/><path d="M10.788,0a.252.252,0,0,1,.2.1.317.317,0,0,1-.03.413L.434,10.48a.245.245,0,0,1-.371-.033.317.317,0,0,1,.03-.413L10.618.07A.247.247,0,0,1,10.788,0Z" transform="translate(34.904 32.662)" fill="#fff"/><path d="M.263,0a.274.274,0,0,1,.26.254l2.1,17.583a.289.289,0,0,1-.226.329.27.27,0,0,1-.3-.252L0,.332A.289.289,0,0,1,.228,0Z" transform="translate(54.902 36.764)" fill="#fff"/><path d="M.263,0A.279.279,0,0,1,.526.293V15.531a.279.279,0,0,1-.263.293A.279.279,0,0,1,0,15.531V.293A.279.279,0,0,1,.263,0Z" transform="translate(34.904 27.387)" fill="#fff"/><path d="M10.262,0a.249.249,0,0,1,.186.086.317.317,0,0,1,0,.414l-10,11.136a.245.245,0,0,1-.372,0,.317.317,0,0,1,0-.414l10-11.136A.249.249,0,0,1,10.262,0Z" transform="translate(24.906 27.387)" fill="#fff"/><path d="M.263,0A.279.279,0,0,1,.526.293V16.7A.279.279,0,0,1,.263,17,.279.279,0,0,1,0,16.7V.293A.279.279,0,0,1,.263,0Z" transform="translate(24.906 22.112)" fill="#fff"/><path d="M9.736,0a.248.248,0,0,1,.176.075.317.317,0,0,1,.02.414L.459,12.211a.245.245,0,0,1-.372.022.317.317,0,0,1-.02-.414L9.54.1A.251.251,0,0,1,9.736,0Z" transform="translate(15.433 22.112)" fill="#fff"/></g></g><g transform="translate(579 56)"><g transform="translate(417.072 170.561)"><path d="M9.465.262a.373.373,0,0,0-.253.061L5.859,2.668a3.2,3.2,0,0,0-.015-.836A2.077,2.077,0,0,0,5.312.713,2.542,2.542,0,0,0,3.452,0,9.752,9.752,0,0,0,.229.633a.374.374,0,0,0-.174.551.523.523,0,0,0,.6.289A9.033,9.033,0,0,1,3.6.881a1.661,1.661,0,0,1,1.127.364,1.533,1.533,0,0,1,.23,1.341,4.39,4.39,0,0,1-.268.958.49.49,0,0,0,.16.545.452.452,0,0,0,.546.071l3.759-2.63.429,4.3a.561.561,0,0,0,.3.428.407.407,0,0,0,.465-.036l2.915-2.706.987,4.83a.569.569,0,0,0,.323.394.4.4,0,0,0,.444-.053l2.951-2.862.464,4.65a.562.562,0,0,0,.31.431.4.4,0,0,0,.467-.046l3.125-3.1.322,4.781A.56.56,0,0,0,23,12.99a.385.385,0,0,0,.48-.1,22.113,22.113,0,0,1,1.59-1.9A6.8,6.8,0,0,1,28,8.849a1.49,1.49,0,0,1,1.045.164,3.064,3.064,0,0,1,.866.745,5.992,5.992,0,0,1,.806,1.275.533.533,0,0,0,.585.323.366.366,0,0,0,.211-.532,7.132,7.132,0,0,0-.976-1.548,4.2,4.2,0,0,0-1.2-1.021,2.414,2.414,0,0,0-1.67-.27,7.251,7.251,0,0,0-3.292,2.342c-.346.369-.657.728-.912,1.037l-.31-4.594a.559.559,0,0,0-.3-.442.4.4,0,0,0-.474.043L19.212,9.506,18.749,4.87a.561.561,0,0,0-.308-.43.4.4,0,0,0-.467.042l-3.04,2.948-.983-4.809a.569.569,0,0,0-.319-.392.4.4,0,0,0-.443.047L10.362,4.9,9.946.743A.559.559,0,0,0,9.666.328.508.508,0,0,0,9.465.262Z" transform="translate(0 22.311) rotate(-45)" fill="#acb1b3"/><path d="M.12,0A.135.135,0,0,0,.038.027a.086.086,0,0,0,0,.139L4.124,3.711a.14.14,0,0,0,.17,0,.086.086,0,0,0,0-.139L.208.031A.134.134,0,0,0,.12,0Z" transform="translate(7.512 15.614)" fill="#fff"/><path d="M.361,0a.112.112,0,0,0-.12.095L0,5.018a.109.109,0,0,0,.115.1.113.113,0,0,0,.125-.094L.481.1A.109.109,0,0,0,.366,0Z" transform="translate(11.603 14.236)" fill="#fff"/><path d="M.12,0A.133.133,0,0,0,.029.035.087.087,0,0,0,.042.174L4.855,3.522a.14.14,0,0,0,.17-.011.087.087,0,0,0-.014-.139L.2.023A.137.137,0,0,0,.12,0Z" transform="translate(11.844 14.236)" fill="#fff"/><path d="M1.083,0A.115.115,0,0,0,.964.085L0,5.994A.1.1,0,0,0,.1,6.1.118.118,0,0,0,.24,6.02L1.2.111A.1.1,0,0,0,1.1,0Z" transform="translate(6.549 15.614)" fill="#fff"/><path d="M.12,0A.111.111,0,0,0,0,.1V5.219a.111.111,0,0,0,.12.1.111.111,0,0,0,.12-.1V.1A.111.111,0,0,0,.12,0Z" transform="translate(16.656 12.463)" fill="#fff"/><path d="M.12,0A.135.135,0,0,0,.035.029a.086.086,0,0,0,0,.139L4.607,3.91a.14.14,0,0,0,.17,0,.086.086,0,0,0,0-.139L.205.029A.135.135,0,0,0,.12,0Z" transform="translate(16.656 12.463)" fill="#fff"/><path d="M.12,0A.111.111,0,0,0,0,.1V5.613a.111.111,0,0,0,.12.1.111.111,0,0,0,.12-.1V.1A.111.111,0,0,0,.12,0Z" transform="translate(21.229 10.691)" fill="#fff"/><path d="M.12,0A.136.136,0,0,0,.04.025.087.087,0,0,0,.031.164L4.362,4.1a.14.14,0,0,0,.17.007.087.087,0,0,0,.009-.139L.21.033A.133.133,0,0,0,.12,0Z" transform="translate(21.229 10.691)" fill="#fff"/></g></g><g transform="translate(886.072 222.561)"><g transform="translate(0 0)"><path d="M9.465,12.771a.373.373,0,0,1-.253-.061L5.859,10.364a3.2,3.2,0,0,1-.015.836,2.077,2.077,0,0,1-.532,1.119,2.542,2.542,0,0,1-1.86.711A9.752,9.752,0,0,1,.229,12.4a.374.374,0,0,1-.174-.551.523.523,0,0,1,.6-.289,9.033,9.033,0,0,0,2.952.592,1.661,1.661,0,0,0,1.127-.364,1.533,1.533,0,0,0,.23-1.341,4.39,4.39,0,0,0-.268-.958.49.49,0,0,1,.16-.545A.452.452,0,0,1,5.4,8.874L9.158,11.5l.429-4.3a.561.561,0,0,1,.3-.428.407.407,0,0,1,.465.036L13.272,9.52l.987-4.83a.569.569,0,0,1,.323-.394.4.4,0,0,1,.444.053l2.951,2.862.464-4.65a.562.562,0,0,1,.31-.431.4.4,0,0,1,.467.046l3.125,3.1L22.666.5A.56.56,0,0,1,23,.043a.385.385,0,0,1,.48.1,22.113,22.113,0,0,0,1.59,1.9A6.8,6.8,0,0,0,28,4.183a1.49,1.49,0,0,0,1.045-.164,3.064,3.064,0,0,0,.866-.745A5.992,5.992,0,0,0,30.714,2a.533.533,0,0,1,.585-.323.366.366,0,0,1,.211.532,7.132,7.132,0,0,1-.976,1.548,4.2,4.2,0,0,1-1.2,1.021,2.414,2.414,0,0,1-1.67.27A7.251,7.251,0,0,1,24.369,2.7c-.346-.369-.657-.728-.912-1.037l-.31,4.594a.559.559,0,0,1-.3.442.4.4,0,0,1-.474-.043L19.212,3.526l-.463,4.636a.561.561,0,0,1-.308.43.4.4,0,0,1-.467-.042L14.935,5.6l-.983,4.809a.569.569,0,0,1-.319.392.4.4,0,0,1-.443-.047L10.362,8.131l-.415,4.158a.559.559,0,0,1-.281.415A.508.508,0,0,1,9.465,12.771Z" transform="translate(9.215 0) rotate(45)" fill="#acb1b3"/><path d="M.12,3.742a.135.135,0,0,1-.083-.027.086.086,0,0,1,0-.139L4.124.031a.14.14,0,0,1,.17,0,.086.086,0,0,1,0,.139L.208,3.711A.134.134,0,0,1,.12,3.742Z" transform="translate(7.512 12.17)" fill="#fff"/><path d="M.361,5.121a.112.112,0,0,1-.12-.095L0,.1A.109.109,0,0,1,.116,0,.113.113,0,0,1,.241.095L.481,5.018a.109.109,0,0,1-.115.1Z" transform="translate(11.603 12.17)" fill="#fff"/><path d="M.12,3.545A.133.133,0,0,1,.029,3.51a.087.087,0,0,1,.014-.139L4.855.023a.14.14,0,0,1,.17.011.087.087,0,0,1-.014.139L.2,3.522A.137.137,0,0,1,.12,3.545Z" transform="translate(11.844 13.745)" fill="#fff"/><path d="M1.083,6.105A.115.115,0,0,1,.964,6.02L0,.111A.1.1,0,0,1,.1,0,.118.118,0,0,1,.24.085L1.2,5.994a.1.1,0,0,1-.1.111Z" transform="translate(6.549 9.806)" fill="#fff"/><path d="M.12,5.318a.111.111,0,0,1-.12-.1V.1A.111.111,0,0,1,.12,0a.111.111,0,0,1,.12.1V5.219A.111.111,0,0,1,.12,5.318Z" transform="translate(16.657 13.745)" fill="#fff"/><path d="M.12,3.939A.135.135,0,0,1,.035,3.91a.086.086,0,0,1,0-.139L4.607.029a.14.14,0,0,1,.17,0,.086.086,0,0,1,0,.139L.205,3.91A.135.135,0,0,1,.12,3.939Z" transform="translate(16.657 15.124)" fill="#fff"/><path d="M.12,5.711a.111.111,0,0,1-.12-.1V.1A.111.111,0,0,1,.12,0a.111.111,0,0,1,.12.1V5.613A.111.111,0,0,1,.12,5.711Z" transform="translate(21.229 15.124)" fill="#fff"/><path d="M.12,4.136a.136.136,0,0,1-.08-.025.087.087,0,0,1-.009-.139L4.362.033a.14.14,0,0,1,.17-.007.087.087,0,0,1,.009.139L.21,4.1A.133.133,0,0,1,.12,4.136Z" transform="translate(21.229 16.7)" fill="#fff"/></g></g><g transform="translate(570 58)"><g transform="translate(312.072 174.561)"><path d="M9.465,12.771a.373.373,0,0,1-.253-.061L5.859,10.364a3.2,3.2,0,0,1-.015.836,2.077,2.077,0,0,1-.532,1.119,2.542,2.542,0,0,1-1.86.711A9.752,9.752,0,0,1,.229,12.4a.374.374,0,0,1-.174-.551.523.523,0,0,1,.6-.289,9.033,9.033,0,0,0,2.952.592,1.661,1.661,0,0,0,1.127-.364,1.533,1.533,0,0,0,.23-1.341,4.39,4.39,0,0,0-.268-.958.49.49,0,0,1,.16-.545A.452.452,0,0,1,5.4,8.874L9.158,11.5l.429-4.3a.561.561,0,0,1,.3-.428.407.407,0,0,1,.465.036L13.272,9.52l.987-4.83a.569.569,0,0,1,.323-.394.4.4,0,0,1,.444.053l2.951,2.862.464-4.65a.562.562,0,0,1,.31-.431.4.4,0,0,1,.467.046l3.125,3.1L22.666.5A.56.56,0,0,1,23,.043a.385.385,0,0,1,.48.1,22.113,22.113,0,0,0,1.59,1.9A6.8,6.8,0,0,0,28,4.183a1.49,1.49,0,0,0,1.045-.164,3.064,3.064,0,0,0,.866-.745A5.992,5.992,0,0,0,30.714,2a.533.533,0,0,1,.585-.323.366.366,0,0,1,.211.532,7.132,7.132,0,0,1-.976,1.548,4.2,4.2,0,0,1-1.2,1.021,2.414,2.414,0,0,1-1.67.27A7.251,7.251,0,0,1,24.369,2.7c-.346-.369-.657-.728-.912-1.037l-.31,4.594a.559.559,0,0,1-.3.442.4.4,0,0,1-.474-.043L19.212,3.526l-.463,4.636a.561.561,0,0,1-.308.43.4.4,0,0,1-.467-.042L14.935,5.6l-.983,4.809a.569.569,0,0,1-.319.392.4.4,0,0,1-.443-.047L10.362,8.131l-.415,4.158a.559.559,0,0,1-.281.415A.508.508,0,0,1,9.465,12.771Z" transform="translate(9.215 0) rotate(45)" fill="#acb1b3"/><path d="M.12,3.742a.135.135,0,0,1-.083-.027.086.086,0,0,1,0-.139L4.124.031a.14.14,0,0,1,.17,0,.086.086,0,0,1,0,.139L.208,3.711A.134.134,0,0,1,.12,3.742Z" transform="translate(7.512 12.17)" fill="#fff"/><path d="M.361,5.121a.112.112,0,0,1-.12-.095L0,.1A.109.109,0,0,1,.116,0,.113.113,0,0,1,.241.095L.481,5.018a.109.109,0,0,1-.115.1Z" transform="translate(11.603 12.17)" fill="#fff"/><path d="M.12,3.545A.133.133,0,0,1,.029,3.51a.087.087,0,0,1,.014-.139L4.855.023a.14.14,0,0,1,.17.011.087.087,0,0,1-.014.139L.2,3.522A.137.137,0,0,1,.12,3.545Z" transform="translate(11.844 13.745)" fill="#fff"/><path d="M1.083,6.105A.115.115,0,0,1,.964,6.02L0,.111A.1.1,0,0,1,.1,0,.118.118,0,0,1,.24.085L1.2,5.994a.1.1,0,0,1-.1.111Z" transform="translate(6.549 9.806)" fill="#fff"/><path d="M.12,5.318a.111.111,0,0,1-.12-.1V.1A.111.111,0,0,1,.12,0a.111.111,0,0,1,.12.1V5.219A.111.111,0,0,1,.12,5.318Z" transform="translate(16.657 13.745)" fill="#fff"/><path d="M.12,3.939A.135.135,0,0,1,.035,3.91a.086.086,0,0,1,0-.139L4.607.029a.14.14,0,0,1,.17,0,.086.086,0,0,1,0,.139L.205,3.91A.135.135,0,0,1,.12,3.939Z" transform="translate(16.657 15.124)" fill="#fff"/><path d="M.12,5.711a.111.111,0,0,1-.12-.1V.1A.111.111,0,0,1,.12,0a.111.111,0,0,1,.12.1V5.613A.111.111,0,0,1,.12,5.711Z" transform="translate(21.229 15.124)" fill="#fff"/><path d="M.12,4.136a.136.136,0,0,1-.08-.025.087.087,0,0,1-.009-.139L4.362.033a.14.14,0,0,1,.17-.007.087.087,0,0,1,.009.139L.21,4.1A.133.133,0,0,1,.12,4.136Z" transform="translate(21.229 16.7)" fill="#fff"/></g></g></g></svg>