<svg xmlns="http://www.w3.org/2000/svg" width="170" height="116" viewBox="0 0 170 116"><g transform="translate(-300 -24)"><g transform="translate(300 24)" fill="#fff" stroke="#5b666a" stroke-linejoin="round" stroke-width="3"><rect width="170" height="116" stroke="none"/><rect x="1.5" y="1.5" width="167" height="113" fill="none"/></g><path d="M-.793-5.229h169.14" transform="translate(300.793 48.5)" fill="none" stroke="#5b666a" stroke-width="3"/><g transform="translate(307 30)" fill="#5b666a" stroke="#5b666a" stroke-width="2"><circle cx="4" cy="4" r="4" stroke="none"/><circle cx="4" cy="4" r="3" fill="none"/></g><g transform="translate(322 30)" fill="#5b666a" stroke="#5b666a" stroke-width="2"><circle cx="4" cy="4" r="4" stroke="none"/><circle cx="4" cy="4" r="3" fill="none"/></g><g transform="translate(337 30)" fill="#5b666a" stroke="#5b666a" stroke-width="2"><circle cx="4" cy="4" r="4" stroke="none"/><circle cx="4" cy="4" r="3" fill="none"/></g><g transform="translate(614.914 -190.485) rotate(90)" opacity="0.5"><path d="M5.951,17.831A52.763,52.763,0,0,0,4.045,6.948,18.619,18.619,0,0,0,0,0" transform="translate(256.947 176.643)" fill="none" stroke="#5b666a" stroke-linecap="round" stroke-width="3"/><line x2="12.398" transform="translate(250.748 160.729)" fill="none" stroke="#5b666a" stroke-width="1"/><line x2="9.919" transform="translate(251.988 167.415)" fill="none" stroke="#5b666a" stroke-width="1"/><line x2="9.423" transform="translate(251.74 185.559)" fill="none" stroke="#5b666a" stroke-width="1"/><line x1="1.984" y2="2.541" transform="translate(256.947 176.643)" fill="none" stroke="#fff" stroke-linecap="round" stroke-width="2"/><line x2="11.406" transform="translate(250.996 190.818)" fill="none" stroke="#5b666a" stroke-width="1"/><path d="M0,17.831A52.763,52.763,0,0,1,1.906,6.948,18.619,18.619,0,0,1,5.951,0" transform="translate(250.5 176.643)" fill="none" stroke="#5b666a" stroke-linecap="round" stroke-linejoin="round" stroke-width="3"/><path d="M5.951,0A52.763,52.763,0,0,1,4.045,10.883,18.619,18.619,0,0,1,0,17.831" transform="translate(256.699 158.5)" fill="none" stroke="#5b666a" stroke-linecap="round" stroke-linejoin="round" stroke-width="3"/><path d="M0,0A52.763,52.763,0,0,0,1.906,10.883a18.619,18.619,0,0,0,4.045,6.948" transform="translate(250.5 158.812)" fill="none" stroke="#5b666a" stroke-linecap="round" stroke-linejoin="round" stroke-width="3"/></g><g transform="translate(429.987 84.197) rotate(90)"><path d="M5.552,17.831A56.253,56.253,0,0,0,3.774,6.948,18.864,18.864,0,0,0,0,0" transform="translate(6.014 18.143)" fill="none" stroke="#0f65a0" stroke-linecap="round" stroke-width="3"/><line x2="11.566" transform="translate(0.231 2.229)" fill="none" stroke="#0f65a0" stroke-width="1"/><line x2="9.253" transform="translate(1.388 8.915)" fill="none" stroke="#0f65a0" stroke-width="1"/><line x2="8.79" transform="translate(1.157 27.059)" fill="none" stroke="#0f65a0" stroke-width="1"/><line x1="1.851" y2="2.541" transform="translate(6.014 18.143)" fill="none" stroke="#fff" stroke-linecap="round" stroke-width="2"/><line x2="10.641" transform="translate(0.463 32.318)" fill="none" stroke="#0f65a0" stroke-width="1"/><path d="M0,17.831A56.253,56.253,0,0,1,1.778,6.948,18.864,18.864,0,0,1,5.552,0" transform="translate(0 18.143)" fill="none" stroke="#0f65a0" stroke-linecap="round" stroke-linejoin="round" stroke-width="3"/><path d="M5.552,0A56.253,56.253,0,0,1,3.774,10.883,18.864,18.864,0,0,1,0,17.831" transform="translate(5.783)" fill="none" stroke="#0f65a0" stroke-linecap="round" stroke-linejoin="round" stroke-width="3"/><path d="M0,0A56.253,56.253,0,0,0,1.778,10.883a18.864,18.864,0,0,0,3.774,6.948" transform="translate(0 0.312)" fill="none" stroke="#0f65a0" stroke-linecap="round" stroke-linejoin="round" stroke-width="3"/></g><g transform="translate(350.974 110.356) rotate(90)" opacity="0.5"><path d="M7.19,17.831a44.513,44.513,0,0,0-2.3-10.883A18.509,18.509,0,0,0,0,0" transform="translate(7.79 18.143)" fill="none" stroke="#5b666a" stroke-linecap="round" stroke-width="3"/><line x2="14.98" transform="translate(0.3 2.229)" fill="none" stroke="#5b666a" stroke-width="1"/><line x2="11.984" transform="translate(1.798 8.915)" fill="none" stroke="#5b666a" stroke-width="1"/><line x2="11.385" transform="translate(1.498 27.059)" fill="none" stroke="#5b666a" stroke-width="1"/><line x1="2.397" y2="2.541" transform="translate(7.79 18.143)" fill="none" stroke="#fff" stroke-linecap="round" stroke-width="2"/><line x2="13.782" transform="translate(0.599 32.318)" fill="none" stroke="#5b666a" stroke-width="1"/><path d="M0,17.831A44.513,44.513,0,0,1,2.3,6.948,18.509,18.509,0,0,1,7.19,0" transform="translate(0 18.143)" fill="none" stroke="#5b666a" stroke-linecap="round" stroke-linejoin="round" stroke-width="3"/><path d="M7.19,0a44.513,44.513,0,0,1-2.3,10.883A18.509,18.509,0,0,1,0,17.831" transform="translate(7.49)" fill="none" stroke="#5b666a" stroke-linecap="round" stroke-linejoin="round" stroke-width="3"/><path d="M0,0A44.513,44.513,0,0,0,2.3,10.883,18.509,18.509,0,0,0,7.19,17.831" transform="translate(0 0.312)" fill="none" stroke="#5b666a" stroke-linecap="round" stroke-linejoin="round" stroke-width="3"/></g><g transform="matrix(-0.966, -0.259, 0.259, -0.966, 456.043, 148.82)"><path d="M15.712.018a.649.649,0,0,0-.423.115L9.6,4.211a5.3,5.3,0,0,0,.022-1.386A3.191,3.191,0,0,0,8.8,1,3.951,3.951,0,0,0,5.756-.075,16.815,16.815,0,0,0,.376,1.154a.65.65,0,0,0-.32.923.812.812,0,0,0,.974.446A15.587,15.587,0,0,1,5.958,1.375a2.605,2.605,0,0,1,1.848.54c.225.24.565.846.307,2.21a7.7,7.7,0,0,1-.5,1.6.777.777,0,0,0,.235.894.736.736,0,0,0,.9.086l6.381-4.572.47,7.1a.852.852,0,0,0,.48.693.686.686,0,0,0,.773-.085l4.986-4.651,1.365,7.953a.86.86,0,0,0,.514.635.676.676,0,0,0,.739-.113l5.055-4.912.508,7.684a.852.852,0,0,0,.49.7.681.681,0,0,0,.777-.1l5.355-5.319.265,7.909a.851.851,0,0,0,.525.736.662.662,0,0,0,.8-.186,40.5,40.5,0,0,1,2.744-3.248c2.009-2.13,3.73-3.413,4.977-3.713a2.4,2.4,0,0,1,1.724.213,4.6,4.6,0,0,1,1.393,1.186,9.081,9.081,0,0,1,1.264,2.069.822.822,0,0,0,.952.5.641.641,0,0,0,.38-.894,10.81,10.81,0,0,0-1.531-2.511A6.309,6.309,0,0,0,48.2,12.154a3.894,3.894,0,0,0-2.753-.353c-1.506.361-3.387,1.73-5.591,4.069-.595.631-1.13,1.245-1.571,1.771l-.255-7.6a.849.849,0,0,0-.48-.715.683.683,0,0,0-.788.1L31.353,14.8l-.507-7.661a.852.852,0,0,0-.486-.7.683.683,0,0,0-.776.1L24.377,11.6,23.018,3.678a.86.86,0,0,0-.508-.632.68.68,0,0,0-.737.1L16.937,7.66,16.483.789a.85.85,0,0,0-.442-.673A.8.8,0,0,0,15.712.018Z" transform="translate(-0.15 38.651) rotate(-45)" fill="#acb1b3"/><path d="M.193,0A.208.208,0,0,0,.06.046.154.154,0,0,0,.053.285L6.605,6.362a.212.212,0,0,0,.272.007.154.154,0,0,0,.008-.239L.333.053A.206.206,0,0,0,.193,0Z" transform="translate(11.988 27.23)" fill="#fff"/><path d="M.578,0A.183.183,0,0,0,.386.162L0,8.6a.18.18,0,0,0,.185.175.184.184,0,0,0,.2-.162L.771.176A.18.18,0,0,0,.586,0Z" transform="translate(18.541 24.867)" fill="#fff"/><path d="M.193,0A.2.2,0,0,0,.046.059.155.155,0,0,0,.068.3l7.709,5.74a.212.212,0,0,0,.272-.019.155.155,0,0,0-.022-.238L.318.04A.209.209,0,0,0,.193,0Z" transform="translate(18.927 24.867)" fill="#fff"/><path d="M1.734,0a.186.186,0,0,0-.191.147L0,10.276a.174.174,0,0,0,.166.19.19.19,0,0,0,.217-.145L1.926.191A.174.174,0,0,0,1.76,0Z" transform="translate(10.446 27.23)" fill="#fff"/><path d="M.193,0A.182.182,0,0,0,0,.169V8.948a.182.182,0,0,0,.193.169.182.182,0,0,0,.193-.169V.169A.182.182,0,0,0,.193,0Z" transform="translate(26.636 21.828)" fill="#fff"/><path d="M.193,0A.207.207,0,0,0,.056.049a.154.154,0,0,0,0,.239L7.38,6.7a.213.213,0,0,0,.273,0,.154.154,0,0,0,0-.239L.329.049A.207.207,0,0,0,.193,0Z" transform="translate(26.636 21.828)" fill="#fff"/><path d="M.193,0A.182.182,0,0,0,0,.169V9.623a.182.182,0,0,0,.193.169.182.182,0,0,0,.193-.169V.169A.182.182,0,0,0,.193,0Z" transform="translate(33.96 18.789)" fill="#fff"/><path d="M.193,0A.208.208,0,0,0,.064.043.155.155,0,0,0,.049.282L6.988,7.035a.212.212,0,0,0,.272.013.155.155,0,0,0,.014-.238L.336.056A.205.205,0,0,0,.193,0Z" transform="translate(33.96 18.789)" fill="#fff"/></g><g transform="matrix(0.966, -0.259, 0.259, 0.966, 306.648, 44.519)"><path d="M17.109,22.528a.693.693,0,0,1-.459-.119l-6.14-4.36a5.771,5.771,0,0,1,0,1.509,3.575,3.575,0,0,1-.918,2,4.407,4.407,0,0,1-3.33,1.213A18.02,18.02,0,0,1,.425,21.509a.7.7,0,0,1-.336-1,.906.906,0,0,1,1.066-.5,16.7,16.7,0,0,0,5.35,1.18,2.9,2.9,0,0,0,2.02-.614c.249-.265.627-.93.365-2.411a8.2,8.2,0,0,0-.519-1.739.86.86,0,0,1,.269-.977.806.806,0,0,1,.983-.107l6.884,4.888.612-7.74a.959.959,0,0,1,.533-.761.741.741,0,0,1,.841.082L23.856,16.8l1.6-8.679a.97.97,0,0,1,.568-.7.729.729,0,0,1,.8.113l5.435,5.278.662-8.375a.96.96,0,0,1,.543-.766.735.735,0,0,1,.845.1l5.756,5.716.4-8.616A.958.958,0,0,1,41.05.07a.711.711,0,0,1,.87.191,42.438,42.438,0,0,0,2.942,3.5c2.157,2.29,4.013,3.664,5.367,3.972a2.643,2.643,0,0,0,1.88-.257,5.2,5.2,0,0,0,1.534-1.311,10.229,10.229,0,0,0,1.406-2.271.919.919,0,0,1,1.044-.56.683.683,0,0,1,.4.968,12.177,12.177,0,0,1-1.7,2.756,7.135,7.135,0,0,1-2.134,1.8,4.281,4.281,0,0,1-3,.423C48.02,8.9,45.992,7.44,43.625,4.925c-.639-.679-1.213-1.339-1.685-1.906L41.554,11.3a.955.955,0,0,1-.532.786.738.738,0,0,1-.857-.095L34.349,6.213l-.66,8.349a.959.959,0,0,1-.539.764.737.737,0,0,1-.844-.094L26.708,9.8l-1.592,8.643a.97.97,0,0,1-.562.7.733.733,0,0,1-.8-.1l-5.2-4.845-.592,7.489a.956.956,0,0,1-.491.739A.884.884,0,0,1,17.109,22.528Z" transform="translate(16.101 0) rotate(45)" fill="#acb1b3"/><path d="M.213,6.895a.233.233,0,0,1-.146-.05.163.163,0,0,1-.009-.256L7.286.057a.239.239,0,0,1,.3-.007A.163.163,0,0,1,7.6.306L.367,6.838A.231.231,0,0,1,.213,6.895Z" transform="translate(13.389 21.48)" fill="#fff"/><path d="M.638,9.435a.2.2,0,0,1-.212-.174L0,.189A.2.2,0,0,1,.2,0,.2.2,0,0,1,.425.174L.85,9.246a.2.2,0,0,1-.2.189Z" transform="translate(20.617 21.48)" fill="#fff"/><path d="M.213,6.532a.229.229,0,0,1-.162-.064.164.164,0,0,1,.024-.256L8.579.043a.239.239,0,0,1,.3.021A.164.164,0,0,1,8.854.32L.35,6.489A.235.235,0,0,1,.213,6.532Z" transform="translate(21.043 24.383)" fill="#fff"/><path d="M1.913,11.249a.2.2,0,0,1-.21-.157L0,.205A.189.189,0,0,1,.185,0,.209.209,0,0,1,.423.157l1.7,10.886a.189.189,0,0,1-.183.2Z" transform="translate(11.688 17.126)" fill="#fff"/><path d="M.213,9.8A.2.2,0,0,1,0,9.616V.181A.2.2,0,0,1,.213,0,.2.2,0,0,1,.425.181V9.616A.2.2,0,0,1,.213,9.8Z" transform="translate(29.546 24.383)" fill="#fff"/><path d="M.213,7.258A.232.232,0,0,1,.062,7.2a.163.163,0,0,1,0-.257L8.141.053a.239.239,0,0,1,.3,0,.163.163,0,0,1,0,.257L.363,7.2A.232.232,0,0,1,.213,7.258Z" transform="translate(29.546 26.924)" fill="#fff"/><path d="M.213,10.524A.2.2,0,0,1,0,10.342V.181A.2.2,0,0,1,.213,0,.2.2,0,0,1,.425.181V10.342A.2.2,0,0,1,.213,10.524Z" transform="translate(37.625 26.924)" fill="#fff"/><path d="M.213,7.621A.234.234,0,0,1,.07,7.574a.163.163,0,0,1-.016-.256L7.708.06a.239.239,0,0,1,.3-.013A.163.163,0,0,1,8.024.3L.371,7.56A.23.23,0,0,1,.213,7.621Z" transform="translate(37.625 29.827)" fill="#fff"/></g><g transform="translate(220.255 -204.837)"><path d="M21.338,28.888a.748.748,0,0,1-.483-.135l-6.52-4.7a6.043,6.043,0,0,1,.038,1.578,3.565,3.565,0,0,1-.914,2.071A4.428,4.428,0,0,1,10,28.9a19.355,19.355,0,0,1-6.137-1.452.75.75,0,0,1-.374-1.054.909.909,0,0,1,1.1-.5,17.944,17.944,0,0,0,5.622,1.355,2.927,2.927,0,0,0,2.1-.6c.254-.271.634-.958.327-2.513a8.907,8.907,0,0,0-.582-1.83.875.875,0,0,1,.259-1.016.835.835,0,0,1,1.025-.09l7.31,5.268.465-8.08a.949.949,0,0,1,.54-.784.785.785,0,0,1,.881.1l5.722,5.344,1.475-9.04a.957.957,0,0,1,.579-.718.776.776,0,0,1,.843.136l5.8,5.642.5-8.743a.949.949,0,0,1,.55-.789.781.781,0,0,1,.886.125l6.149,6.109.224-9a.948.948,0,0,1,.591-.833.762.762,0,0,1,.914.22,47.3,47.3,0,0,0,3.156,3.725c2.308,2.444,4.28,3.923,5.7,4.276a2.721,2.721,0,0,0,1.961-.226A5.1,5.1,0,0,0,59.176,12.6a10.108,10.108,0,0,0,1.419-2.343A.919.919,0,0,1,61.673,9.7a.741.741,0,0,1,.441,1.021A12.033,12.033,0,0,1,60.4,13.561a7,7,0,0,1-2.191,1.83,4.406,4.406,0,0,1-3.131.375c-1.718-.426-3.873-2-6.405-4.687-.683-.724-1.3-1.428-1.806-2.032L46.649,17.7a.946.946,0,0,1-.539.81.783.783,0,0,1-.9-.119L39,12.216l-.5,8.717a.949.949,0,0,1-.547.787.782.782,0,0,1-.884-.118l-5.977-5.812-1.469,9a.957.957,0,0,1-.572.715.779.779,0,0,1-.84-.123L22.657,20.2l-.45,7.818a.947.947,0,0,1-.5.762A.892.892,0,0,1,21.338,28.888Z" transform="translate(133.947 263.121) rotate(45)" fill="#1065a0" style="mix-blend-mode:multiply;isolation:isolate"/><path d="M-.283,6.867a.232.232,0,0,1-.149-.053A.179.179,0,0,1-.441,6.54l7.4-6.979a.237.237,0,0,1,.307-.008.179.179,0,0,1,.009.274l-7.4,6.979A.23.23,0,0,1-.283,6.867Z" transform="translate(130.254 292.14)" fill="#fff"/><path d="M.152,9.581a.208.208,0,0,1-.217-.186L-.5-.3A.2.2,0,0,1-.291-.5a.209.209,0,0,1,.226.186L.37,9.379a.2.2,0,0,1-.209.2Z" transform="translate(137.65 292.141)" fill="#fff"/><path d="M-.282,6.479a.229.229,0,0,1-.166-.068.18.18,0,0,1,.025-.273l8.7-6.591a.236.236,0,0,1,.307.022.18.18,0,0,1-.025.273l-8.7,6.591A.233.233,0,0,1-.282,6.479Z" transform="translate(138.085 295.242)" fill="#fff"/><path d="M1.457,11.52a.211.211,0,0,1-.215-.168L-.5-.281A.2.2,0,0,1-.311-.5a.214.214,0,0,1,.244.167L1.673,11.3a.2.2,0,0,1-.187.218Z" transform="translate(128.514 287.488)" fill="#fff"/><path d="M-.282,9.969A.207.207,0,0,1-.5,9.775V-.306A.207.207,0,0,1-.282-.5a.207.207,0,0,1,.218.194V9.775A.207.207,0,0,1-.282,9.969Z" transform="translate(146.785 295.242)" fill="#fff"/><path d="M-.282,7.255A.231.231,0,0,1-.436,7.2a.179.179,0,0,1,0-.274L7.829-.443a.237.237,0,0,1,.308,0,.179.179,0,0,1,0,.274L-.129,7.2A.231.231,0,0,1-.282,7.255Z" transform="translate(146.785 297.956)" fill="#fff"/><path d="M-.282,10.744A.207.207,0,0,1-.5,10.55V-.306A.207.207,0,0,1-.282-.5a.207.207,0,0,1,.218.194V10.55A.207.207,0,0,1-.282,10.744Z" transform="translate(155.051 297.956)" fill="#fff"/><path d="M-.283,7.642a.232.232,0,0,1-.145-.05.179.179,0,0,1-.016-.274L7.386-.436A.237.237,0,0,1,7.694-.45a.179.179,0,0,1,.016.274L-.121,7.578A.23.23,0,0,1-.283,7.642Z" transform="translate(155.051 301.058)" fill="#fff"/></g></g></svg>