<?xml version="1.0" encoding="utf-8"?>
<!-- Generator: Adobe Illustrator 16.0.3, SVG Export Plug-In . SVG Version: 6.00 Build 0)  -->
<!DOCTYPE svg PUBLIC "-//W3C//DTD SVG 1.1//EN" "http://www.w3.org/Graphics/SVG/1.1/DTD/svg11.dtd">
<svg version="1.1" id="Ebene_1" xmlns="http://www.w3.org/2000/svg" xmlns:xlink="http://www.w3.org/1999/xlink" x="0px" y="0px"
	 width="442px" height="300px" viewBox="78.138 121.472 442 300" enable-background="new 78.138 121.472 442 300"
	 xml:space="preserve">
<line fill="none" stroke="#6D767A" stroke-width="3" x1="84.298" y1="365.291" x2="509.496" y2="365.291"/>
<g>
	<g>
		<defs>
			<rect id="SVGID_1_" width="595.277" height="595.277"/>
		</defs>
		<clipPath id="SVGID_2_">
			<use xlink:href="#SVGID_1_"  overflow="visible"/>
		</clipPath>
		<path clip-path="url(#SVGID_2_)" fill="#6D767A" d="M498.769,409.652c-0.803-0.367-1.469-0.902-2-1.605s-0.928-1.564-1.189-2.584
			c-0.262-1.018-0.395-2.178-0.395-3.48s0.133-2.463,0.395-3.482c0.262-1.018,0.658-1.879,1.189-2.582s1.197-1.242,2-1.617
			c0.801-0.373,1.74-0.561,2.818-0.561c1.063,0,1.992,0.188,2.785,0.561c0.793,0.375,1.457,0.914,1.986,1.617
			c0.531,0.703,0.93,1.564,1.191,2.582c0.262,1.02,0.393,2.18,0.393,3.482s-0.131,2.463-0.393,3.48s-0.66,1.881-1.191,2.584
			c-0.529,0.703-1.193,1.238-1.986,1.605c-0.793,0.365-1.723,0.549-2.785,0.549C500.509,410.201,499.568,410.017,498.769,409.652
			 M497.24,391.458c-1.295,0.531-2.396,1.287-3.301,2.268c-0.906,0.982-1.604,2.168-2.09,3.561
			c-0.486,1.395-0.729,2.951-0.729,4.672c0,1.738,0.242,3.303,0.729,4.695s1.184,2.58,2.09,3.561c0.904,0.98,2.006,1.736,3.301,2.27
			c1.297,0.531,2.744,0.797,4.348,0.797c1.602,0,3.047-0.266,4.334-0.797c1.289-0.531,2.381-1.287,3.281-2.27
			c0.896-0.98,1.59-2.168,2.076-3.561s0.729-2.957,0.729-4.695c0-1.721-0.242-3.277-0.729-4.672
			c-0.486-1.393-1.18-2.578-2.076-3.561c-0.9-0.979-1.992-1.734-3.281-2.268c-1.287-0.531-2.732-0.799-4.334-0.799
			C499.984,390.66,498.537,390.925,497.24,391.458 M481.152,383.035c-0.148-0.336-0.355-0.631-0.615-0.887
			c-0.264-0.256-0.564-0.457-0.9-0.607c-0.336-0.148-0.691-0.223-1.066-0.223c-0.373,0-0.727,0.074-1.055,0.223
			c-0.33,0.15-0.617,0.354-0.865,0.607c-0.246,0.254-0.445,0.551-0.596,0.887c-0.148,0.338-0.225,0.701-0.225,1.09
			c0,0.375,0.074,0.729,0.225,1.066s0.35,0.629,0.596,0.877c0.248,0.246,0.535,0.445,0.865,0.594
			c0.328,0.15,0.682,0.227,1.055,0.227c0.375,0,0.73-0.076,1.066-0.227c0.338-0.148,0.637-0.348,0.9-0.594
			c0.26-0.248,0.467-0.539,0.615-0.877c0.15-0.338,0.227-0.691,0.227-1.066C481.378,383.736,481.302,383.373,481.152,383.035
			 M476.662,412.964h3.951v-21.969h-3.951V412.964z M460.673,395.669c0.959,1.258,1.439,3.219,1.439,5.885
			c0,2.875-0.539,5.039-1.617,6.49c-1.078,1.453-2.627,2.18-4.65,2.18c-0.986,0-1.893-0.191-2.717-0.572
			c-0.824-0.383-1.58-1.045-2.27-1.988v-10.602c0.766-1.049,1.605-1.857,2.527-2.426c0.92-0.568,1.988-0.854,3.199-0.854
			C458.353,393.783,459.716,394.412,460.673,395.669 M449.466,412.964c0.584,0,0.906-0.277,0.965-0.832l0.227-1.953
			c0.748,0.975,1.605,1.732,2.572,2.279c0.965,0.547,2.166,0.82,3.604,0.82s2.732-0.285,3.885-0.855
			c1.154-0.568,2.135-1.373,2.943-2.414s1.43-2.287,1.863-3.74c0.434-1.451,0.65-3.068,0.65-4.852c0-1.678-0.189-3.178-0.57-4.504
			c-0.383-1.324-0.934-2.451-1.65-3.381c-0.721-0.928-1.59-1.639-2.607-2.133c-1.016-0.494-2.164-0.742-3.436-0.742
			c-1.498,0-2.822,0.313-3.977,0.934c-1.152,0.621-2.18,1.463-3.076,2.525v-13.094h-3.953v31.939h2.561V412.964z M434.873,409.47
			c-0.15-0.336-0.357-0.631-0.619-0.887c-0.262-0.254-0.561-0.455-0.896-0.605c-0.338-0.15-0.693-0.225-1.066-0.225
			c-0.375,0-0.727,0.074-1.057,0.225s-0.617,0.352-0.863,0.605c-0.248,0.256-0.447,0.551-0.598,0.887
			c-0.148,0.338-0.225,0.701-0.225,1.09c0,0.375,0.076,0.73,0.225,1.068c0.15,0.336,0.35,0.629,0.598,0.875
			c0.246,0.248,0.533,0.445,0.863,0.596c0.328,0.148,0.682,0.225,1.057,0.225c0.373,0,0.729-0.076,1.066-0.225
			c0.336-0.15,0.637-0.348,0.896-0.596c0.262-0.246,0.469-0.539,0.619-0.875c0.148-0.338,0.225-0.693,0.225-1.068
			C435.097,410.171,435.021,409.808,434.873,409.47 M413.764,412.964h3.952v-31.939h-3.952V412.964z M390.748,410.347
			c-0.436-0.127-0.81-0.32-1.123-0.584c-0.314-0.262-0.565-0.6-0.752-1.01c-0.188-0.412-0.281-0.902-0.281-1.473
			c0-0.6,0.172-1.143,0.516-1.629c0.346-0.486,0.902-0.91,1.674-1.27c0.771-0.357,1.771-0.646,2.998-0.865
			c1.229-0.217,2.719-0.361,4.471-0.438v4.537c-0.435,0.451-0.871,0.857-1.313,1.227c-0.442,0.367-0.91,0.672-1.403,0.92
			c-0.494,0.248-1.019,0.438-1.572,0.572c-0.555,0.135-1.16,0.201-1.818,0.201C391.646,410.539,391.181,410.474,390.748,410.347
			 M402.111,412.964v-14.039c0-1.242-0.168-2.373-0.505-3.393c-0.337-1.018-0.828-1.895-1.472-2.627
			c-0.643-0.732-1.444-1.299-2.403-1.695c-0.958-0.396-2.051-0.596-3.278-0.596c-1.707,0-3.262,0.289-4.66,0.863
			c-1.4,0.578-2.707,1.449-3.92,2.617l0.719,1.258c0.119,0.211,0.277,0.383,0.473,0.518c0.193,0.135,0.426,0.203,0.695,0.203
			c0.345,0,0.686-0.121,1.021-0.359c0.338-0.24,0.737-0.502,1.201-0.787c0.464-0.283,1.016-0.545,1.65-0.785
			c0.638-0.238,1.42-0.359,2.348-0.359c1.395,0,2.452,0.432,3.18,1.291c0.727,0.861,1.09,2.146,1.09,3.854v1.686
			c-2.486,0.061-4.582,0.287-6.289,0.686c-1.707,0.396-3.094,0.908-4.156,1.537c-1.063,0.629-1.83,1.344-2.303,2.145
			c-0.472,0.803-0.707,1.637-0.707,2.506c0,0.988,0.162,1.846,0.482,2.57c0.322,0.729,0.766,1.334,1.325,1.82
			c0.563,0.486,1.213,0.846,1.954,1.078c0.74,0.23,1.539,0.348,2.392,0.348c0.824,0,1.58-0.07,2.271-0.213
			c0.688-0.143,1.332-0.355,1.931-0.641c0.601-0.285,1.172-0.633,1.719-1.045c0.548-0.412,1.104-0.879,1.675-1.404l0.494,2.045
			c0.073,0.375,0.217,0.621,0.426,0.74c0.209,0.121,0.51,0.182,0.897,0.182h1.751V412.964z M360.317,412.964v-16.174
			c0.81-0.941,1.699-1.68,2.673-2.211c0.975-0.531,2.021-0.797,3.145-0.797c1.514,0,2.64,0.455,3.382,1.369
			c0.741,0.914,1.112,2.188,1.112,3.818v13.992h3.953V398.97c0-1.244-0.158-2.377-0.474-3.402c-0.313-1.025-0.778-1.902-1.394-2.629
			c-0.613-0.727-1.373-1.287-2.278-1.684c-0.907-0.396-1.958-0.598-3.156-0.598c-1.526,0-2.875,0.318-4.043,0.955
			c-1.168,0.639-2.224,1.479-3.167,2.527l-0.337-2.336c-0.028-0.285-0.135-0.49-0.313-0.619c-0.18-0.127-0.412-0.189-0.696-0.189
			h-2.358v21.967h3.952V412.964z M332.774,409.652c-0.801-0.367-1.468-0.902-1.999-1.605s-0.929-1.564-1.189-2.584
			c-0.264-1.018-0.395-2.178-0.395-3.48s0.131-2.463,0.395-3.482c0.262-1.018,0.658-1.879,1.189-2.582s1.198-1.242,1.999-1.617
			c0.802-0.373,1.741-0.561,2.819-0.561c1.063,0,1.99,0.188,2.785,0.561c0.793,0.375,1.455,0.914,1.988,1.617
			c0.529,0.703,0.928,1.564,1.188,2.582c0.262,1.02,0.394,2.18,0.394,3.482s-0.132,2.463-0.394,3.48
			c-0.263,1.018-0.659,1.881-1.188,2.584c-0.533,0.703-1.195,1.238-1.988,1.605c-0.795,0.365-1.724,0.549-2.785,0.549
			C334.516,410.201,333.576,410.017,332.774,409.652 M331.248,391.458c-1.295,0.531-2.396,1.287-3.303,2.268
			c-0.904,0.98-1.604,2.168-2.089,3.561c-0.485,1.395-0.729,2.951-0.729,4.672c0,1.738,0.244,3.303,0.729,4.695
			s1.185,2.58,2.089,3.561c0.906,0.98,2.008,1.736,3.303,2.27c1.295,0.531,2.742,0.797,4.346,0.797c1.603,0,3.048-0.266,4.336-0.797
			c1.287-0.531,2.381-1.287,3.279-2.27c0.897-0.98,1.59-2.168,2.078-3.561c0.484-1.393,0.729-2.957,0.729-4.695
			c0-1.721-0.244-3.277-0.729-4.672c-0.488-1.393-1.181-2.578-2.078-3.561c-0.898-0.98-1.992-1.734-3.279-2.268
			c-1.288-0.531-2.733-0.799-4.336-0.799C333.99,390.66,332.542,390.925,331.248,391.458 M315.16,383.035
			c-0.15-0.336-0.355-0.631-0.617-0.887c-0.264-0.256-0.563-0.457-0.898-0.607c-0.337-0.148-0.691-0.223-1.066-0.223
			s-0.728,0.074-1.057,0.223c-0.329,0.15-0.618,0.354-0.865,0.607c-0.246,0.254-0.443,0.551-0.595,0.887
			c-0.149,0.338-0.224,0.701-0.224,1.09c0,0.375,0.074,0.729,0.224,1.066s0.349,0.629,0.595,0.877
			c0.247,0.246,0.536,0.445,0.865,0.594c0.329,0.15,0.682,0.227,1.057,0.227s0.729-0.076,1.066-0.227
			c0.337-0.148,0.636-0.348,0.898-0.594c0.262-0.248,0.467-0.539,0.617-0.877c0.148-0.338,0.225-0.691,0.225-1.066
			C315.384,383.736,315.309,383.373,315.16,383.035 M310.667,412.964h3.953v-21.969h-3.953V412.964z M298.655,412.785
			c0.914-0.344,1.707-0.832,2.382-1.459l-1.168-1.889c-0.074-0.135-0.152-0.23-0.236-0.291c-0.082-0.061-0.189-0.09-0.324-0.09
			c-0.12,0-0.251,0.053-0.393,0.156c-0.145,0.105-0.313,0.227-0.508,0.359c-0.193,0.135-0.43,0.254-0.706,0.359
			c-0.277,0.104-0.611,0.156-1,0.156c-0.659,0-1.194-0.225-1.606-0.674c-0.412-0.449-0.617-1.123-0.617-2.021v-13.117h6.042V391.4
			h-6.042v-7.523h-2.022c-0.24,0-0.438,0.066-0.595,0.201c-0.157,0.135-0.251,0.314-0.281,0.539l-0.921,6.762l-3.459,0.447v1.574
			c0,0.283,0.079,0.502,0.236,0.65c0.157,0.148,0.348,0.225,0.573,0.225h2.516v13.387c0,1.813,0.456,3.205,1.37,4.178
			c0.913,0.975,2.216,1.461,3.908,1.461C296.792,413.3,297.743,413.128,298.655,412.785 M267.148,410.347
			c-0.434-0.127-0.809-0.32-1.123-0.584c-0.314-0.262-0.565-0.6-0.752-1.01c-0.188-0.412-0.281-0.902-0.281-1.473
			c0-0.6,0.172-1.143,0.516-1.629c0.345-0.486,0.902-0.91,1.674-1.27c0.771-0.357,1.77-0.646,2.998-0.865
			c1.228-0.217,2.718-0.361,4.47-0.438v4.537c-0.434,0.451-0.872,0.857-1.314,1.227c-0.442,0.367-0.91,0.672-1.404,0.92
			c-0.494,0.248-1.018,0.438-1.572,0.572c-0.554,0.135-1.161,0.201-1.819,0.201C268.047,410.539,267.583,410.474,267.148,410.347
			 M278.514,412.964v-14.039c0-1.242-0.168-2.373-0.505-3.393c-0.337-1.018-0.828-1.895-1.471-2.627
			c-0.644-0.732-1.445-1.299-2.404-1.695c-0.958-0.396-2.051-0.596-3.279-0.596c-1.707,0-3.261,0.289-4.661,0.863
			c-1.4,0.578-2.706,1.449-3.919,2.617l0.719,1.258c0.119,0.211,0.277,0.383,0.471,0.518c0.195,0.135,0.427,0.203,0.697,0.203
			c0.344,0,0.685-0.121,1.022-0.359c0.337-0.24,0.737-0.502,1.201-0.787c0.464-0.283,1.015-0.545,1.651-0.785
			c0.637-0.238,1.419-0.359,2.347-0.359c1.393,0,2.452,0.432,3.179,1.291c0.726,0.861,1.089,2.146,1.089,3.854v1.686
			c-2.486,0.061-4.582,0.287-6.289,0.686c-1.707,0.396-3.092,0.908-4.155,1.537c-1.064,0.629-1.831,1.344-2.303,2.145
			c-0.471,0.803-0.707,1.637-0.707,2.506c0,0.988,0.161,1.846,0.483,2.57c0.322,0.727,0.763,1.334,1.325,1.82
			s1.213,0.846,1.954,1.078c0.741,0.23,1.539,0.348,2.392,0.348c0.824,0,1.58-0.07,2.269-0.213c0.688-0.143,1.332-0.355,1.931-0.641
			c0.599-0.285,1.172-0.633,1.719-1.045c0.546-0.412,1.104-0.879,1.673-1.404l0.494,2.045c0.075,0.375,0.217,0.621,0.427,0.74
			c0.209,0.121,0.509,0.182,0.898,0.182h1.752V412.964z M251.162,412.785c0.913-0.344,1.707-0.832,2.381-1.459l-1.168-1.889
			c-0.075-0.135-0.154-0.23-0.236-0.291s-0.191-0.09-0.325-0.09c-0.12,0-0.251,0.053-0.393,0.156
			c-0.143,0.105-0.311,0.227-0.506,0.359c-0.195,0.135-0.43,0.254-0.707,0.359c-0.278,0.104-0.611,0.156-1,0.156
			c-0.659,0-1.194-0.225-1.606-0.674s-0.617-1.123-0.617-2.021v-13.117h6.042V391.4h-6.042v-7.523h-2.022
			c-0.24,0-0.438,0.066-0.595,0.201c-0.157,0.135-0.251,0.314-0.281,0.539l-0.921,6.762l-3.459,0.447v1.574
			c0,0.283,0.079,0.502,0.236,0.65c0.157,0.148,0.348,0.225,0.573,0.225h2.515v13.387c0,1.813,0.457,3.205,1.371,4.178
			c0.913,0.975,2.215,1.461,3.908,1.461C249.298,413.3,250.249,413.128,251.162,412.785 M212.063,390.998v13.994
			c0,1.242,0.157,2.377,0.472,3.4c0.314,1.027,0.778,1.902,1.392,2.629c0.614,0.727,1.374,1.287,2.28,1.686
			c0.906,0.395,1.958,0.596,3.156,0.596c1.527,0,2.871-0.318,4.032-0.955c1.16-0.637,2.212-1.479,3.155-2.525l0.36,2.336
			c0.03,0.283,0.135,0.49,0.314,0.617c0.18,0.127,0.405,0.189,0.674,0.189h2.381v-21.967h-3.953v16.195
			c-0.824,0.928-1.718,1.656-2.684,2.189c-0.966,0.529-2.01,0.797-3.134,0.797c-1.512,0-2.639-0.453-3.38-1.359
			c-0.741-0.906-1.112-2.182-1.112-3.828v-13.994H212.063L212.063,390.998z M194.83,394.232c0.681,0.299,1.258,0.775,1.729,1.426
			c0.472,0.65,0.831,1.486,1.078,2.504c0.247,1.02,0.371,2.24,0.371,3.662c0,2.695-0.543,4.77-1.628,6.223
			c-1.086,1.451-2.632,2.178-4.639,2.178c-1.018,0-1.942-0.189-2.774-0.572c-0.831-0.383-1.591-1.043-2.279-1.988v-10.602
			c0.778-1.047,1.635-1.855,2.571-2.426c0.936-0.568,2.018-0.854,3.246-0.854C193.373,393.783,194.147,393.931,194.83,394.232
			 M186.688,420.376v-9.658c0.733,0.809,1.572,1.438,2.515,1.887c0.944,0.449,2.081,0.674,3.414,0.674
			c1.468,0,2.786-0.291,3.954-0.875c1.167-0.584,2.159-1.391,2.976-2.416c0.816-1.023,1.441-2.236,1.875-3.639
			c0.434-1.4,0.651-2.908,0.651-4.525c0-1.826-0.194-3.438-0.584-4.83c-0.389-1.393-0.943-2.561-1.662-3.502
			c-0.718-0.943-1.587-1.66-2.605-2.146c-1.019-0.486-2.156-0.729-3.414-0.729c-1.558,0-2.935,0.344-4.133,1.033
			c-1.198,0.688-2.261,1.594-3.189,2.717l-0.382-2.561c-0.03-0.283-0.135-0.49-0.315-0.619c-0.179-0.127-0.412-0.189-0.696-0.189
			h-2.358v29.379H186.688L186.688,420.376z M144.556,412.964v-16.352c0.689-0.885,1.453-1.576,2.291-2.078
			c0.839-0.502,1.737-0.752,2.696-0.752c1.407,0,2.474,0.426,3.2,1.279c0.727,0.854,1.09,2.156,1.09,3.908v13.992h3.953V398.97
			c0-0.854,0.131-1.604,0.393-2.246c0.262-0.645,0.614-1.188,1.056-1.629c0.441-0.441,0.954-0.771,1.538-0.988
			s1.205-0.324,1.864-0.324c1.453,0,2.568,0.438,3.347,1.313c0.779,0.875,1.168,2.168,1.168,3.875v13.992h3.953V398.97
			c0-2.666-0.655-4.717-1.965-6.154c-1.311-1.438-3.164-2.156-5.559-2.156c-0.749,0-1.483,0.086-2.201,0.26
			c-0.719,0.172-1.393,0.443-2.022,0.818s-1.202,0.848-1.718,1.416c-0.517,0.568-0.932,1.256-1.247,2.064
			c-0.404-1.393-1.082-2.5-2.032-3.324c-0.952-0.822-2.183-1.234-3.695-1.234c-0.674,0-1.311,0.082-1.909,0.248
			c-0.6,0.164-1.161,0.398-1.685,0.707c-0.524,0.307-1.015,0.666-1.471,1.078c-0.457,0.41-0.895,0.863-1.314,1.357l-0.337-2.246
			c-0.03-0.283-0.131-0.488-0.303-0.617c-0.173-0.127-0.408-0.191-0.708-0.191h-2.336v21.969H144.556L144.556,412.964z
			 M116.855,409.652c-0.801-0.367-1.467-0.902-1.999-1.605c-0.532-0.703-0.928-1.564-1.19-2.584
			c-0.262-1.018-0.393-2.178-0.393-3.48s0.131-2.463,0.393-3.482c0.262-1.018,0.658-1.879,1.19-2.582
			c0.532-0.703,1.198-1.242,1.999-1.617c0.801-0.373,1.741-0.561,2.819-0.561c1.063,0,1.991,0.188,2.785,0.561
			c0.794,0.375,1.456,0.914,1.988,1.617c0.531,0.703,0.928,1.564,1.19,2.582c0.262,1.02,0.393,2.18,0.393,3.482
			s-0.131,2.463-0.393,3.48c-0.262,1.018-0.659,1.881-1.19,2.584c-0.532,0.703-1.194,1.238-1.988,1.605
			c-0.794,0.365-1.722,0.549-2.785,0.549C118.597,410.201,117.657,410.017,116.855,409.652 M115.329,391.458
			c-1.296,0.531-2.396,1.287-3.302,2.268c-0.906,0.98-1.602,2.168-2.089,3.561c-0.487,1.395-0.73,2.951-0.73,4.672
			c0,1.738,0.243,3.303,0.73,4.695s1.183,2.58,2.089,3.561c0.906,0.98,2.006,1.736,3.302,2.27c1.295,0.531,2.744,0.797,4.346,0.797
			c1.602,0,3.047-0.266,4.335-0.797c1.288-0.531,2.381-1.287,3.279-2.27c0.899-0.98,1.591-2.168,2.078-3.561
			c0.486-1.393,0.73-2.957,0.73-4.695c0-1.721-0.244-3.277-0.73-4.672c-0.487-1.393-1.179-2.578-2.078-3.561
			c-0.898-0.979-1.991-1.734-3.279-2.268c-1.288-0.531-2.733-0.799-4.335-0.799C118.073,390.66,116.624,390.925,115.329,391.458
			 M101.24,393.513c-0.869-0.898-1.864-1.6-2.987-2.102s-2.434-0.752-3.931-0.752c-1.587,0-2.991,0.281-4.211,0.844
			c-1.221,0.561-2.246,1.344-3.078,2.346c-0.831,1.004-1.463,2.199-1.897,3.582c-0.435,1.387-0.652,2.895-0.652,4.525
			c0,1.799,0.236,3.396,0.708,4.797c0.471,1.4,1.123,2.584,1.954,3.549s1.808,1.703,2.931,2.213s2.328,0.764,3.616,0.764
			c0.749,0,1.486-0.066,2.213-0.203c0.726-0.133,1.426-0.34,2.1-0.615c0.673-0.277,1.302-0.631,1.886-1.057
			c0.584-0.428,1.116-0.934,1.595-1.518l-1.145-1.438c-0.18-0.254-0.42-0.381-0.719-0.381c-0.27,0-0.528,0.111-0.775,0.336
			s-0.558,0.473-0.932,0.74c-0.375,0.27-0.839,0.518-1.393,0.742s-1.265,0.336-2.134,0.336c-0.898,0-1.707-0.184-2.425-0.549
			c-0.719-0.367-1.333-0.902-1.842-1.605c-0.509-0.705-0.902-1.57-1.179-2.596c-0.278-1.025-0.416-2.197-0.416-3.516
			c0-1.271,0.131-2.418,0.393-3.436c0.262-1.02,0.644-1.885,1.146-2.596c0.501-0.711,1.13-1.258,1.886-1.641
			c0.756-0.381,1.629-0.572,2.617-0.572c0.749,0,1.381,0.09,1.898,0.271c0.517,0.178,0.955,0.377,1.314,0.594
			c0.359,0.219,0.659,0.416,0.898,0.596c0.24,0.182,0.472,0.271,0.697,0.271c0.209,0,0.37-0.041,0.483-0.125
			c0.112-0.082,0.228-0.205,0.348-0.369L101.24,393.513z"/>
	</g>
	<g>
		<defs>
			<rect id="SVGID_3_" width="595.277" height="595.277"/>
		</defs>
		<clipPath id="SVGID_4_">
			<use xlink:href="#SVGID_3_"  overflow="visible"/>
		</clipPath>
		<path clip-path="url(#SVGID_4_)" fill="#6D767A" d="M241.122,200.828c-1.906,3.552-3.501,7.308-4.625,11.373
			c-1.307,4.728-1.96,9.65-1.96,14.766c0,5.117,0.653,10.024,1.96,14.723c1.124,4.043,2.719,7.8,4.625,11.368V200.828z
			 M344.065,226.967c0-7.73-1.433-14.918-4.296-21.564c-2.865-6.645-6.757-12.43-11.68-17.351
			c-4.92-4.922-10.705-8.787-17.352-11.596c-6.646-2.807-13.75-4.212-21.313-4.212c-5.117,0-10.025,0.64-14.724,1.918
			c-4.7,1.28-9.079,3.087-13.138,5.423c-1.428,0.821-2.751,1.779-4.086,2.721h23.288c3.52,0,6.84,0.67,9.96,2.01
			c3.12,1.341,5.85,3.18,8.19,5.52c2.34,2.34,4.188,5.08,5.549,8.22c1.359,3.141,2.041,6.51,2.041,10.11c0,3-0.471,5.79-1.41,8.37
			s-2.271,4.89-3.99,6.93c2.88,2.64,5.16,5.781,6.84,9.42c1.682,3.64,2.521,7.5,2.521,11.58c0,3.64-0.7,7.09-2.102,10.35
			c-1.398,3.261-3.289,6.12-5.67,8.58c-2.38,2.46-5.16,4.41-8.34,5.85s-6.53,2.16-10.05,2.16H257.12
			c1.443,1.043,2.891,2.08,4.445,2.984c4.059,2.365,8.438,4.186,13.138,5.464c4.699,1.279,9.607,1.919,14.724,1.919
			c5.06,0,9.913-0.64,14.556-1.919c4.644-1.278,8.995-3.099,13.056-5.464c4.06-2.363,7.744-5.199,11.053-8.508
			c3.309-3.309,6.146-6.993,8.51-11.053c2.363-4.059,4.197-8.439,5.506-13.139C343.412,236.991,344.065,232.084,344.065,226.967
			 M261.507,217.406h12.695c1.363,0,2.617-0.21,3.76-0.63s2.115-1.02,2.918-1.8c0.802-0.78,1.434-1.7,1.896-2.76
			c0.461-1.059,0.691-2.229,0.691-3.51c0-1.2-0.221-2.319-0.661-3.36c-0.442-1.04-1.064-1.959-1.866-2.76
			c-0.803-0.8-1.764-1.43-2.888-1.89c-1.123-0.459-2.346-0.69-3.669-0.69h-12.876V217.406z M277.385,233.546h-15.878v20.04h15.878
			c1.323,0,2.545-0.279,3.668-0.84c1.123-0.56,2.106-1.31,2.948-2.25c0.842-0.939,1.493-2.01,1.955-3.21
			c0.461-1.2,0.691-2.439,0.691-3.72c0-1.2-0.23-2.4-0.691-3.6c-0.462-1.2-1.104-2.27-1.925-3.21
			c-0.822-0.939-1.805-1.71-2.948-2.31C279.94,233.846,278.708,233.546,277.385,233.546"/>
	</g>
	<g>
		<defs>
			<rect id="SVGID_5_" width="595.277" height="595.277"/>
		</defs>
		<clipPath id="SVGID_6_">
			<use xlink:href="#SVGID_5_"  overflow="visible"/>
		</clipPath>
		<path clip-path="url(#SVGID_6_)" fill="#0069B4" d="M216.167,286.697c-6.615,3.147-14.455,4.72-23.52,4.72
			c-8.32,0-16.16-1.68-23.52-5.04s-13.787-7.92-19.28-13.68c-5.495-5.76-9.84-12.533-13.04-20.32c-3.2-7.785-4.8-16.105-4.8-24.96
			c0-8.64,1.6-16.88,4.8-24.72c3.2-7.84,7.572-14.72,13.12-20.64c5.545-5.92,11.972-10.613,19.28-14.08
			c7.305-3.465,15.12-5.2,23.44-5.2c7.68,0,15.145,1.44,22.4,4.32c7.252,2.88,13.6,6.615,19.04,11.2
			c2.24,1.815,4.265,2.72,6.08,2.72c2.56,0,4.905-1.6,7.04-4.8l13.12-20c0.532-0.745,1.167-1.823,1.507-2.957
			c0.284-1.021,0.268-0.965,0.227-1.758c-0.113-2.211-1.508-4.322-2.948-5.442c-1.587-1.361-1.701-1.531-3.855-3.175l-0.371-0.268
			c-8.215-6.185-17.6-11.092-28.16-14.72c-10.56-3.625-21.76-5.44-33.6-5.44c-9.495,0-18.695,1.255-27.6,3.76
			c-8.908,2.508-17.228,6.027-24.96,10.56c-7.735,4.535-14.8,9.975-21.2,16.32c-6.4,6.347-11.92,13.415-16.56,21.2
			c-4.64,7.788-8.215,16.16-10.72,25.12c-2.507,8.96-3.76,18.295-3.76,28c0,9.707,1.253,19.04,3.76,28
			c2.505,8.96,6.08,17.335,10.72,25.12c4.64,7.788,10.16,14.855,16.56,21.201c6.4,6.348,13.465,11.787,21.2,16.318
			c7.732,4.535,16.052,8.057,24.96,10.561c8.905,2.506,18.105,3.762,27.6,3.762c12.585,0,24.132-2.029,34.64-6.08
			c10.505-4.055,20.292-9.387,29.36-16c1.92-1.387,3.465-2.746,4.64-4.08c1.173-1.332,1.76-2.854,1.76-4.561
			c0-0.641-0.16-1.359-0.48-2.16c-0.32-0.801-0.748-1.573-1.28-2.319l-11.412-16.263l-3.401-5.159
			c-1.28-1.813-3.517-3.294-5.329-3.402c-0.855,0-1.588,0-2.921,0.416c-1.331,0.491-2.645,1.475-4.457,2.648
			C228.808,279.792,222.78,283.552,216.167,286.697"/>
	</g>
</g>
</svg>
