<?xml version="1.0" encoding="UTF-8" standalone="no"?>
<!-- Created with Inkscape (http://www.inkscape.org/) -->
<svg xmlns:svg="http://www.w3.org/2000/svg" xmlns="http://www.w3.org/2000/svg" version="1.0" width="290" height="105" id="svg2928">
  <defs id="defs2930">
    <clipPath id="clipPath119">
      <path d="M 335.77,705.802 L 561.12,705.802 L 561.12,786.171 L 335.77,786.171 L 335.77,705.802 z" id="path121"/>
    </clipPath>
    <clipPath id="clipPath105">
      <path d="M 335.77,705.802 L 561.12,705.802 L 561.12,786.171 L 335.77,786.171 L 335.77,705.802 z" id="path107"/>
    </clipPath>
    <clipPath id="clipPath75">
      <path d="M 335.77,705.802 L 561.12,705.802 L 561.12,786.171 L 335.77,786.171 L 335.77,705.802 z" id="path77"/>
    </clipPath>
    <clipPath id="clipPath17">
      <path d="M 335.77,705.802 L 561.12,705.802 L 561.12,786.171 L 335.77,786.171 L 335.77,705.802 z" id="path19"/>
    </clipPath>
  </defs>
  <g transform="translate(-82.011682,-113.56015)" id="layer1">
    <g transform="matrix(1.25,0,0,-1.25,-333.54285,1098.5408)" id="g2879">
      <g id="g13">
        <g clip-path="url(#clipPath17)" id="g15">
          <g id="g21">
            <path d="M 337.781,774.05 C 337.83,772.89 337.946,770.665 340.313,770.665 C 342.846,770.665 342.822,772.844 342.822,774.24 L 342.822,785.885 L 345.071,785.885 L 345.071,774.358 C 345.071,772.796 345.071,768.654 340.313,768.654 C 338.917,768.654 336.409,768.938 335.84,772.44 C 335.746,773.08 335.77,773.435 335.77,773.766 L 337.781,774.05" id="path23" style="fill:#000000;fill-opacity:1;fill-rule:nonzero;stroke:none"/>
          </g>
        </g>
      </g>
      <path d="M 362.684,785.885 L 362.684,776.085 C 362.684,773.838 362.684,768.654 356.058,768.654 C 349.644,768.654 349.36,773.08 349.36,776.085 L 349.36,785.885 L 351.609,785.885 L 351.609,776.11 C 351.609,774.05 351.609,770.665 355.869,770.665 C 360.035,770.665 360.437,773.057 360.437,776.11 L 360.437,785.885 L 362.684,785.885" id="path27" style="fill:#000000;fill-opacity:1;fill-rule:nonzero;stroke:none"/>
      <path d="M 367.25,774.571 C 367.274,774.193 367.369,773.483 367.699,772.844 C 368.647,771.022 370.99,770.665 372.244,770.665 C 374.588,770.665 376.457,771.659 376.457,773.554 C 376.457,775.541 374.754,775.968 371.321,776.796 C 369.12,777.316 365.783,778.098 365.783,781.482 C 365.783,784.109 367.96,786.168 371.724,786.168 C 375.369,786.168 377.972,784.417 378.09,781.08 L 375.936,780.914 C 375.819,782.145 375.321,784.156 371.819,784.156 C 370.35,784.156 367.913,783.731 367.913,781.625 C 367.913,780.156 368.859,779.612 371.96,778.925 C 375.06,778.24 378.611,777.434 378.611,773.719 C 378.611,770.903 376.196,768.654 372.339,768.654 C 368.268,768.654 366.423,770.217 365.547,772.299 C 365.168,773.223 365.144,773.933 365.12,774.382 L 367.25,774.571" id="path29" style="fill:#000000;fill-opacity:1;fill-rule:nonzero;stroke:none"/>
      <path d="M 385.134,783.872 L 379.572,783.872 L 379.572,785.885 L 392.993,785.885 L 392.993,783.872 L 387.383,783.872 L 387.383,768.938 L 385.134,768.938 L 385.134,783.872" id="path31" style="fill:#000000;fill-opacity:1;fill-rule:nonzero;stroke:none"/>
      <path d="M 407.913,785.885 L 407.913,776.085 C 407.913,773.838 407.913,768.654 401.286,768.654 C 394.873,768.654 394.589,773.08 394.589,776.085 L 394.589,785.885 L 396.837,785.885 L 396.837,776.11 C 396.837,774.05 396.837,770.665 401.096,770.665 C 405.262,770.665 405.665,773.057 405.665,776.11 L 405.665,785.885 L 407.913,785.885" id="path33" style="fill:#000000;fill-opacity:1;fill-rule:nonzero;stroke:none"/>
      <path d="M 412.215,774.571 C 412.239,774.193 412.335,773.483 412.665,772.844 C 413.611,771.022 415.956,770.665 417.21,770.665 C 419.553,770.665 421.422,771.659 421.422,773.554 C 421.422,775.541 419.718,775.968 416.286,776.796 C 414.085,777.316 410.748,778.098 410.748,781.482 C 410.748,784.109 412.925,786.168 416.69,786.168 C 420.333,786.168 422.937,784.417 423.055,781.08 L 420.901,780.914 C 420.783,782.145 420.286,784.156 416.785,784.156 C 415.316,784.156 412.878,783.731 412.878,781.625 C 412.878,780.156 413.825,779.612 416.926,778.925 C 420.026,778.24 423.576,777.434 423.576,773.719 C 423.576,770.903 421.162,768.654 417.304,768.654 C 413.234,768.654 411.388,770.217 410.513,772.299 C 410.133,773.223 410.109,773.933 410.085,774.382 L 412.215,774.571" id="path35" style="fill:#000000;fill-opacity:1;fill-rule:nonzero;stroke:none"/>
      <path d="M 426.88,774.027 L 433.246,774.027 L 433.246,776.1095 L 426.88,776.1095 L 426.88,774.027 z" id="path37" style="fill:#000000;fill-opacity:1;fill-rule:nonzero;stroke:none"/>
      <path d="M 437.096,785.885 L 439.344,785.885 L 439.344,770.95 L 447.697,770.95 L 447.697,768.938 L 437.096,768.938 L 437.096,785.885" id="path39" style="fill:#000000;fill-opacity:1;fill-rule:nonzero;stroke:none"/>
      <path d="M 449.87,768.938 L 452.117,768.938 L 452.117,785.885 L 449.87,785.885 L 449.87,768.938 z" id="path41" style="fill:#000000;fill-opacity:1;fill-rule:nonzero;stroke:none"/>
      <path d="M 456.663,785.885 L 468.922,785.885 L 468.922,783.872 L 458.911,783.872 L 458.911,778.689 L 468.283,778.689 L 468.283,776.678 L 458.911,776.678 L 458.911,770.95 L 469.326,770.95 L 469.326,768.938 L 456.663,768.938 L 456.663,785.885" id="path43" style="fill:#000000;fill-opacity:1;fill-rule:nonzero;stroke:none"/>
      <path d="M 474.578,776.773 L 478.509,776.773 C 479.881,776.773 482.815,776.773 482.815,773.861 C 482.815,770.927 479.976,770.95 478.793,770.95 L 474.578,770.95 L 474.578,776.773 z M 472.331,768.938 L 478.815,768.938 C 479.785,768.938 480.993,768.938 482.46,769.53 C 484.07,770.169 485.135,771.944 485.135,773.861 C 485.135,775.186 484.566,777.175 481.964,777.955 C 484.165,779.069 484.307,780.938 484.307,781.554 C 484.307,782.807 483.715,784.038 482.649,784.866 C 481.395,785.837 479.739,785.885 478.698,785.885 L 472.331,785.885 L 472.331,768.938 z M 474.578,783.872 L 477.963,783.872 C 479.833,783.872 482.105,783.872 482.105,781.269 C 482.105,778.76 479.739,778.784 478.248,778.784 L 474.578,778.784 L 474.578,783.872" id="path45" style="fill:#000000;fill-opacity:1;fill-rule:nonzero;stroke:none"/>
      <path d="M 488.279,768.938 L 490.5281,768.938 L 490.5281,785.885 L 488.279,785.885 L 488.279,768.938 z" id="path47" style="fill:#000000;fill-opacity:1;fill-rule:nonzero;stroke:none"/>
      <path d="M 501.878,777.578 L 509.049,777.578 L 509.049,771.305 C 508.151,770.572 505.713,768.654 502.043,768.654 C 496.907,768.654 493.382,771.992 493.382,777.34 C 493.382,780.678 494.991,786.169 501.878,786.169 C 507.535,786.169 508.481,782.359 508.79,781.151 L 506.779,780.583 C 506.47,781.648 505.738,784.251 501.878,784.251 C 496.151,784.251 495.702,779.139 495.702,777.483 C 495.702,775.684 496.057,773.885 497.24,772.559 C 498.447,771.234 500.271,770.667 501.926,770.667 C 504.505,770.667 506.47,772.087 506.873,772.418 L 506.873,775.565 L 501.878,775.565 L 501.878,777.578" id="path49" style="fill:#000000;fill-opacity:1;fill-rule:nonzero;stroke:none"/>
      <path d="M 511.321,774.027 L 517.6891,774.027 L 517.6891,776.1095 L 511.321,776.1095 L 511.321,774.027 z" id="path51" style="fill:#000000;fill-opacity:1;fill-rule:nonzero;stroke:none"/>
      <path d="M 422.816,757.484 L 422.816,747.686 C 422.816,745.437 422.816,740.252 416.19,740.252 C 409.775,740.252 409.491,744.678 409.491,747.686 L 409.491,757.484 L 411.74,757.484 L 411.74,747.708 C 411.74,745.649 411.74,742.265 416.001,742.265 C 420.166,742.265 420.568,744.656 420.568,747.708 L 420.568,757.484 L 422.816,757.484" id="path53" style="fill:#000000;fill-opacity:1;fill-rule:nonzero;stroke:none"/>
      <path d="M 426.846,757.484 L 429.143,757.484 L 437.994,744.183 L 438.041,744.183 L 438.041,757.484 L 440.171,757.484 L 440.171,740.538 L 437.876,740.538 L 429.023,753.839 L 428.977,753.839 L 428.977,740.538 L 426.846,740.538 L 426.846,757.484" id="path55" style="fill:#000000;fill-opacity:1;fill-rule:nonzero;stroke:none"/>
      <path d="M 445.035,740.538 L 447.2822,740.538 L 447.2822,757.485 L 445.035,757.485 L 445.035,740.538 z" id="path57" style="fill:#000000;fill-opacity:1;fill-rule:nonzero;stroke:none"/>
      <path d="M 449.578,757.484 L 451.992,757.484 L 456.394,745.177 L 456.513,744.892 C 456.843,743.969 456.914,743.779 457.27,742.407 L 457.318,742.407 C 457.554,743.329 457.885,744.302 458.193,745.177 L 462.784,757.484 L 465.057,757.484 L 458.429,740.538 L 456.134,740.538 L 449.578,757.484" id="path59" style="fill:#000000;fill-opacity:1;fill-rule:nonzero;stroke:none"/>
      <path d="M 467.091,757.484 L 479.352,757.484 L 479.352,755.473 L 469.341,755.473 L 469.341,750.289 L 478.713,750.289 L 478.713,748.277 L 469.341,748.277 L 469.341,742.549 L 479.754,742.549 L 479.754,740.538 L 467.091,740.538 L 467.091,757.484" id="path61" style="fill:#000000;fill-opacity:1;fill-rule:nonzero;stroke:none"/>
      <path d="M 485.146,755.615 L 490.495,755.615 C 491.37,755.615 492.103,755.519 492.816,755.14 C 493.523,754.762 494.115,753.91 494.115,752.844 C 494.115,751.827 493.523,750.809 492.647,750.431 C 491.725,750.028 490.967,750.028 489.95,750.028 L 485.146,750.028 L 485.146,755.615 z M 482.898,740.538 L 485.146,740.538 L 485.146,748.017 L 487.726,748.017 C 489.595,748.017 490.375,747.851 492.79,744.04 L 495.016,740.538 L 497.833,740.538 L 494.873,745.153 C 493.548,747.212 492.531,747.827 491.677,748.229 L 491.677,748.277 C 494.565,748.656 496.436,750.123 496.436,752.844 C 496.436,754.619 495.512,756.371 493.785,757.034 C 492.671,757.46 491.582,757.484 490.4,757.484 L 482.898,757.484 L 482.898,740.538" id="path63" style="fill:#000000;fill-opacity:1;fill-rule:nonzero;stroke:none"/>
      <path d="M 500.501,746.171 C 500.525,745.792 500.619,745.082 500.95,744.443 C 501.897,742.619 504.24,742.265 505.496,742.265 C 507.837,742.265 509.708,743.259 509.708,745.153 C 509.708,747.141 508.003,747.567 504.571,748.396 C 502.369,748.917 499.034,749.698 499.034,753.082 C 499.034,755.709 501.211,757.768 504.974,757.768 C 508.618,757.768 511.223,756.016 511.341,752.679 L 509.186,752.513 C 509.068,753.744 508.572,755.755 505.068,755.755 C 503.6,755.755 501.164,755.33 501.164,753.224 C 501.164,751.757 502.11,751.212 505.21,750.526 C 508.311,749.839 511.862,749.034 511.862,745.319 C 511.862,742.502 509.446,740.252 505.59,740.252 C 501.519,740.252 499.671,741.816 498.795,743.898 C 498.418,744.822 498.395,745.532 498.371,745.982 L 500.501,746.171" id="path65" style="fill:#000000;fill-opacity:1;fill-rule:nonzero;stroke:none"/>
      <path d="M 515.269,740.538 L 517.5181,740.538 L 517.5181,757.485 L 515.269,757.485 L 515.269,740.538 z" id="path67" style="fill:#000000;fill-opacity:1;fill-rule:nonzero;stroke:none"/>
      <path d="M 525.223,755.473 L 519.661,755.473 L 519.661,757.484 L 533.08,757.484 L 533.08,755.473 L 527.472,755.473 L 527.472,740.538 L 525.223,740.538 L 525.223,755.473" id="path69" style="fill:#000000;fill-opacity:1;fill-rule:nonzero;stroke:none"/>
      <g id="g71">
        <g clip-path="url(#clipPath75)" id="g73">
          <path d="M 539.352,752.468 C 539.753,753.53 540.038,754.596 540.251,755.709 L 540.298,755.709 C 540.654,754.335 541.033,753.294 541.459,752.182 L 543.233,747.472 L 537.482,747.472 L 539.352,752.468 z M 532.606,740.538 L 534.973,740.538 L 536.843,745.697 L 543.919,745.697 L 545.909,740.538 L 548.44,740.538 L 541.529,757.484 L 539.114,757.484 L 532.606,740.538" id="path79" style="fill:#000000;fill-opacity:1;fill-rule:nonzero;stroke:none"/>
          <path d="M 553.268,755.473 L 547.707,755.473 L 547.707,757.484 L 561.126,757.484 L 561.126,755.473 L 555.516,755.473 L 555.516,740.538 L 553.268,740.538 L 553.268,755.473" id="path81" style="fill:#000000;fill-opacity:1;fill-rule:nonzero;stroke:none"/>
        </g>
      </g>
      <path d="M 416.912,723.93 L 424.084,723.93 L 424.084,717.658 C 423.184,716.925 420.746,715.009 417.077,715.009 C 411.943,715.009 408.415,718.344 408.415,723.694 C 408.415,727.032 410.025,732.521 416.912,732.521 C 422.568,732.521 423.516,728.712 423.823,727.505 L 421.811,726.937 C 421.503,728.001 420.77,730.606 416.912,730.606 C 411.185,730.606 410.735,725.493 410.735,723.836 C 410.735,722.038 411.09,720.239 412.275,718.913 C 413.48,717.588 415.302,717.02 416.96,717.02 C 419.54,717.02 421.503,718.439 421.907,718.773 L 421.907,721.919 L 416.912,721.919 L 416.912,723.93" id="path83" style="fill:#000000;fill-opacity:1;fill-rule:nonzero;stroke:none"/>
      <path d="M 427.777,715.292 L 430.0242,715.292 L 430.0242,732.237 L 427.777,732.237 L 427.777,715.292 z" id="path85" style="fill:#000000;fill-opacity:1;fill-rule:nonzero;stroke:none"/>
      <path d="M 434.566,732.238 L 446.823,732.238 L 446.823,730.226 L 436.815,730.226 L 436.815,725.044 L 446.186,725.044 L 446.186,723.031 L 436.815,723.031 L 436.815,717.304 L 447.227,717.304 L 447.227,715.292 L 434.566,715.292 L 434.566,732.238" id="path87" style="fill:#000000;fill-opacity:1;fill-rule:nonzero;stroke:none"/>
      <path d="M 450.887,720.925 C 450.908,720.545 451.004,719.835 451.337,719.197 C 452.282,717.375 454.625,717.02 455.88,717.02 C 458.223,717.02 460.093,718.014 460.093,719.908 C 460.093,721.895 458.389,722.321 454.958,723.15 C 452.757,723.67 449.419,724.451 449.419,727.836 C 449.419,730.464 451.596,732.521 455.359,732.521 C 459.005,732.521 461.608,730.771 461.724,727.434 L 459.573,727.269 C 459.454,728.5 458.958,730.51 455.454,730.51 C 453.987,730.51 451.548,730.085 451.548,727.977 C 451.548,726.51 452.495,725.966 455.595,725.28 C 458.695,724.594 462.246,723.789 462.246,720.074 C 462.246,717.257 459.833,715.009 455.974,715.009 C 451.904,715.009 450.058,716.569 449.182,718.654 C 448.803,719.576 448.779,720.285 448.755,720.735 L 450.887,720.925" id="path89" style="fill:#000000;fill-opacity:1;fill-rule:nonzero;stroke:none"/>
      <path d="M 466.409,720.925 C 466.432,720.545 466.526,719.835 466.858,719.197 C 467.804,717.375 470.148,717.02 471.402,717.02 C 473.745,717.02 475.616,718.014 475.616,719.908 C 475.616,721.895 473.91,722.321 470.479,723.15 C 468.279,723.67 464.942,724.451 464.942,727.836 C 464.942,730.464 467.118,732.521 470.881,732.521 C 474.527,732.521 477.13,730.771 477.249,727.434 L 475.095,727.269 C 474.976,728.5 474.479,730.51 470.976,730.51 C 469.509,730.51 467.072,730.085 467.072,727.977 C 467.072,726.51 468.018,725.966 471.119,725.28 C 474.219,724.594 477.769,723.789 477.769,720.074 C 477.769,717.257 475.356,715.009 471.498,715.009 C 467.426,715.009 465.58,716.569 464.704,718.654 C 464.324,719.576 464.302,720.285 464.278,720.735 L 466.409,720.925" id="path91" style="fill:#000000;fill-opacity:1;fill-rule:nonzero;stroke:none"/>
      <path d="M 480.018,732.237 L 492.277,732.237 L 492.277,730.225 L 482.265,730.225 L 482.265,725.041 L 491.638,725.041 L 491.638,723.029 L 482.265,723.029 L 482.265,717.303 L 492.681,717.303 L 492.681,715.291 L 480.018,715.291 L 480.018,732.237" id="path93" style="fill:#000000;fill-opacity:1;fill-rule:nonzero;stroke:none"/>
      <path d="M 495.803,732.237 L 498.099,732.237 L 506.952,718.934 L 506.999,718.934 L 506.999,732.237 L 509.13,732.237 L 509.13,715.291 L 506.833,715.291 L 497.983,728.591 L 497.934,728.591 L 497.934,715.291 L 495.803,715.291 L 495.803,732.237" id="path95" style="fill:#000000;fill-opacity:1;fill-rule:nonzero;stroke:none"/>
      <path d="M 377.767,725.205 C 377.845,726.066 378.002,727.612 378.063,728.413 C 378.486,733.988 378.437,739.932 378.241,742.754 L 378.137,744.245 L 376.643,744.257 C 371.73,744.298 367.029,743.651 364.407,743.209 C 364.488,744.307 364.561,745.749 364.561,747.362 C 364.561,748.975 364.526,750.223 364.482,751.148 C 366.425,750.788 369.452,750.279 372.408,750.001 C 377.091,749.559 380.917,749.613 381.292,749.621 C 381.689,749.613 385.504,749.561 390.17,750.001 C 393.127,750.279 396.153,750.788 398.097,751.148 C 398.053,750.223 398.017,748.975 398.017,747.362 C 398.017,745.749 398.091,744.307 398.172,743.209 C 395.55,743.651 390.849,744.298 385.936,744.257 L 384.442,744.245 L 384.338,742.754 C 384.142,739.932 384.094,733.988 384.515,728.413 C 384.577,727.612 384.735,726.066 384.812,725.205 C 385.102,722.026 385.693,718.844 386.122,716.806 C 385.065,716.899 384.092,716.964 383.302,716.997 C 382.248,717.039 381.506,717.02 381.29,717.012 C 381.072,717.02 380.331,717.039 379.277,716.997 C 378.487,716.964 377.514,716.899 376.458,716.806 C 376.886,718.844 377.477,722.026 377.767,725.205" id="path97" style="fill:#3e69ac;fill-opacity:1;fill-rule:nonzero;stroke:none"/>
      <path d="M 535.614,755.579 L 537.5397,755.579 L 537.5397,757.5047 L 535.614,757.5047 L 535.614,755.579 z" id="path99" style="fill:#000000;fill-opacity:1;fill-rule:nonzero;stroke:none"/>
      <g id="g101">
        <g clip-path="url(#clipPath105)" id="g103">
          <path d="M 542.995,755.579 L 544.9207,755.579 L 544.9207,757.5047 L 542.995,757.5047 L 542.995,755.579 z" id="path109" style="fill:#000000;fill-opacity:1;fill-rule:nonzero;stroke:none"/>
          <path d="M 381.29,705.8 C 381.29,705.8 371.27,709.019 364.837,720.949 C 361.424,727.282 359.126,735.27 359.126,743.361 L 359.126,757.517 L 403.452,757.517 L 403.452,743.361 C 403.452,735.27 401.157,727.282 397.742,720.949 C 391.309,709.019 381.29,705.8 381.29,705.8 z M 380.256,707.839 C 379.272,708.301 377.893,709.038 376.326,710.125 C 373.173,712.314 369.235,715.934 366.149,721.656 C 362.842,727.791 360.616,735.538 360.616,743.361 L 360.616,756.027 L 401.963,756.027 L 401.963,743.361 C 401.963,735.538 399.737,727.791 396.43,721.656 C 393.345,715.934 389.406,712.314 386.255,710.125 C 384.685,709.038 383.309,708.301 382.322,707.839 C 381.893,707.636 381.543,707.49 381.29,707.389 C 381.037,707.49 380.687,707.636 380.256,707.839" id="path111" style="fill:#000000;fill-opacity:1;fill-rule:evenodd;stroke:none"/>
        </g>
      </g>
      <path d="M 381.29,715.398 C 381.29,715.398 380.527,715.431 379.343,715.383 C 378.045,715.331 376.24,715.186 374.39,714.971 C 374.39,714.971 375.686,720.16 376.158,725.351 C 376.236,726.204 376.393,727.74 376.454,728.535 C 376.869,734.023 376.824,739.865 376.629,742.643 C 369.375,742.702 362.594,741.227 362.594,741.227 C 362.594,741.227 362.947,743.88 362.947,747.362 C 362.947,751.49 362.711,753.143 362.711,753.143 C 362.711,753.143 367.73,752.066 372.56,751.608 C 377.391,751.152 381.29,751.235 381.29,751.235 C 381.29,751.235 385.188,751.152 390.018,751.608 C 394.849,752.066 399.868,753.143 399.868,753.143 C 399.868,753.143 399.631,751.49 399.631,747.362 C 399.631,743.88 399.985,741.227 399.985,741.227 C 399.985,741.227 393.203,742.702 385.949,742.643 C 385.755,739.865 385.71,734.023 386.125,728.535 C 386.185,727.74 386.343,726.204 386.42,725.351 C 386.893,720.16 388.19,714.971 388.19,714.971 C 386.339,715.186 384.535,715.331 383.237,715.383 C 382.053,715.431 381.29,715.398 381.29,715.398 z M 379.318,716.004 C 378.214,715.959 376.747,715.849 375.196,715.685 C 375.582,717.384 376.417,721.339 376.777,725.295 C 376.855,726.152 377.012,727.69 377.072,728.489 C 377.492,734.009 377.444,739.89 377.25,742.686 L 377.211,743.26 L 376.636,743.264 C 370.846,743.312 365.353,742.391 363.305,742.003 C 363.411,743.067 363.569,745.031 363.569,747.362 C 363.569,749.87 363.482,751.478 363.412,752.365 C 365.043,752.041 368.826,751.337 372.502,750.99 C 377.207,750.546 381.037,750.609 381.29,750.614 C 381.542,750.609 385.372,750.546 390.077,750.99 C 393.752,751.337 397.536,752.041 399.167,752.365 C 399.098,751.478 399.01,749.87 399.01,747.362 C 399.01,745.031 399.168,743.067 399.275,742.003 C 397.225,742.391 391.733,743.312 385.945,743.264 L 385.368,743.26 L 385.329,742.686 C 385.135,739.89 385.089,734.009 385.507,728.489 C 385.567,727.69 385.723,726.152 385.802,725.295 C 386.161,721.339 386.996,717.384 387.384,715.685 C 385.832,715.849 384.365,715.959 383.261,716.004 C 382.179,716.048 381.439,716.025 381.29,716.019 C 381.141,716.025 380.401,716.048 379.318,716.004" id="path113" style="fill:#000000;fill-opacity:1;fill-rule:evenodd;stroke:none"/>
      <g id="g115">
        <g clip-path="url(#clipPath119)" id="g117">
          <path d="M 336.615,763.387 L 560.934,763.387" id="path123" style="fill:none;stroke:#000000;stroke-width:1.34899998;stroke-linecap:butt;stroke-linejoin:miter;stroke-miterlimit:10;stroke-dasharray:none;stroke-opacity:1"/>
        </g>
      </g>
    </g>
  </g>
</svg>