<svg xmlns="http://www.w3.org/2000/svg" width="170" height="116" viewBox="0 0 170 116"><g transform="translate(-120 -24)"><g transform="translate(-3)"><g transform="translate(123 24)" fill="#fff" stroke="#5b666a" stroke-linejoin="round" stroke-width="3"><rect width="170" height="116" stroke="none"/><rect x="1.5" y="1.5" width="167" height="113" fill="none"/></g><path d="M-.793-5.229h169.14" transform="translate(123.793 48.5)" fill="none" stroke="#5b666a" stroke-width="3"/></g><g transform="translate(223.446 77.556) rotate(90)"><path d="M8.4,17.831s-.59-6.426-2.691-10.883A19.086,19.086,0,0,0,0,0" transform="translate(9.102 18.143)" fill="none" stroke="#0f65a0" stroke-linecap="round" stroke-width="3"/><line x2="17.505" transform="translate(0.35 2.229)" fill="none" stroke="#0f65a0" stroke-width="1"/><line x2="14.004" transform="translate(2.101 8.915)" fill="none" stroke="#0f65a0" stroke-width="1"/><line x2="13.304" transform="translate(1.75 27.059)" fill="none" stroke="#0f65a0" stroke-width="1"/><line x1="2.801" y2="2.541" transform="translate(9.102 18.143)" fill="none" stroke="#fff" stroke-linecap="round" stroke-width="2"/><line x2="16.104" transform="translate(0.7 32.318)" fill="none" stroke="#0f65a0" stroke-width="1"/><path d="M0,17.831S.59,11.405,2.691,6.948A19.086,19.086,0,0,1,8.4,0" transform="translate(0 18.143)" fill="none" stroke="#0f65a0" stroke-linecap="round" stroke-linejoin="round" stroke-width="3"/><path d="M8.4,0s-.59,6.426-2.691,10.883A19.086,19.086,0,0,1,0,17.831" transform="translate(8.752)" fill="none" stroke="#0f65a0" stroke-linecap="round" stroke-linejoin="round" stroke-width="3"/><path d="M0,0S.59,6.426,2.691,10.883A19.086,19.086,0,0,0,8.4,17.831" transform="translate(0 0.312)" fill="none" stroke="#0f65a0" stroke-linecap="round" stroke-linejoin="round" stroke-width="3"/></g><g transform="translate(419.933 -172.944) rotate(90)" opacity="0.5"><path d="M8.4,17.831s-.59-6.426-2.691-10.883A19.086,19.086,0,0,0,0,0" transform="translate(259.602 176.643)" fill="none" stroke="#5b666a" stroke-linecap="round" stroke-width="3"/><line x2="17.505" transform="translate(250.85 160.729)" fill="none" stroke="#5b666a" stroke-width="1"/><line x2="14.004" transform="translate(252.601 167.415)" fill="none" stroke="#5b666a" stroke-width="1"/><line x2="13.304" transform="translate(252.25 185.559)" fill="none" stroke="#5b666a" stroke-width="1"/><line x1="2.801" y2="2.541" transform="translate(259.602 176.643)" fill="none" stroke="#fff" stroke-linecap="round" stroke-width="2"/><line x2="16.104" transform="translate(251.2 190.818)" fill="none" stroke="#5b666a" stroke-width="1"/><path d="M0,17.831S.59,11.405,2.691,6.948A19.086,19.086,0,0,1,8.4,0" transform="translate(250.5 176.643)" fill="none" stroke="#5b666a" stroke-linecap="round" stroke-linejoin="round" stroke-width="3"/><path d="M8.4,0s-.59,6.426-2.691,10.883A19.086,19.086,0,0,1,0,17.831" transform="translate(259.252 158.5)" fill="none" stroke="#5b666a" stroke-linecap="round" stroke-linejoin="round" stroke-width="3"/><path d="M0,0S.59,6.426,2.691,10.883A19.086,19.086,0,0,0,8.4,17.831" transform="translate(250.5 158.812)" fill="none" stroke="#5b666a" stroke-linecap="round" stroke-linejoin="round" stroke-width="3"/></g><g transform="translate(128 30)" fill="#5b666a" stroke="#5b666a" stroke-width="2"><circle cx="4" cy="4" r="4" stroke="none"/><circle cx="4" cy="4" r="3" fill="none"/></g><g transform="translate(142 30)" fill="#5b666a" stroke="#5b666a" stroke-width="2"><circle cx="4" cy="4" r="4" stroke="none"/><circle cx="4" cy="4" r="3" fill="none"/></g><g transform="translate(156 30)" fill="#5b666a" stroke="#5b666a" stroke-width="2"><circle cx="4" cy="4" r="4" stroke="none"/><circle cx="4" cy="4" r="3" fill="none"/></g><g transform="translate(185.974 77.556) rotate(90)" opacity="0.5"><path d="M8.4,0s-.59,6.426-2.691,10.883A19.086,19.086,0,0,1,0,17.831" transform="translate(9.102 0)" fill="none" stroke="#5b666a" stroke-linecap="round" stroke-width="3"/><line x2="17.505" transform="translate(0.35 33.745)" fill="none" stroke="#5b666a" stroke-width="1"/><line x2="14.004" transform="translate(2.101 27.059)" fill="none" stroke="#5b666a" stroke-width="1"/><line x2="13.304" transform="translate(1.75 8.915)" fill="none" stroke="#5b666a" stroke-width="1"/><line x1="2.801" y1="2.541" transform="translate(9.102 15.289)" fill="none" stroke="#fff" stroke-linecap="round" stroke-width="2"/><line x2="16.104" transform="translate(0.7 3.656)" fill="none" stroke="#5b666a" stroke-width="1"/><path d="M0,0S.59,6.426,2.691,10.883A19.086,19.086,0,0,0,8.4,17.831" transform="translate(0 0)" fill="none" stroke="#5b666a" stroke-linecap="round" stroke-linejoin="round" stroke-width="3"/><path d="M8.4,17.831s-.59-6.426-2.691-10.883A19.086,19.086,0,0,0,0,0" transform="translate(8.752 18.143)" fill="none" stroke="#5b666a" stroke-linecap="round" stroke-linejoin="round" stroke-width="3"/><path d="M0,17.831S.59,11.405,2.691,6.948A19.086,19.086,0,0,1,8.4,0" transform="translate(0 17.831)" fill="none" stroke="#5b666a" stroke-linecap="round" stroke-linejoin="round" stroke-width="3"/></g><g transform="matrix(0.966, -0.259, 0.259, 0.966, -10.926, -164.641)"><path d="M9,11.812a.373.373,0,0,1-.253-.061L5.391,9.406a3.2,3.2,0,0,1-.015.836,2.077,2.077,0,0,1-.532,1.119,2.542,2.542,0,0,1-1.86.711A9.752,9.752,0,0,1-.24,11.441a.374.374,0,0,1-.174-.551.523.523,0,0,1,.6-.289,9.033,9.033,0,0,0,2.952.592,1.661,1.661,0,0,0,1.127-.364,1.533,1.533,0,0,0,.23-1.341,4.39,4.39,0,0,0-.268-.958.49.49,0,0,1,.16-.545.452.452,0,0,1,.546-.071l3.759,2.63.429-4.3a.561.561,0,0,1,.3-.428.407.407,0,0,1,.465.036L12.8,8.561l.987-4.83a.569.569,0,0,1,.323-.394.4.4,0,0,1,.444.053l2.951,2.862.464-4.65a.562.562,0,0,1,.31-.431.4.4,0,0,1,.467.046l3.125,3.1L22.2-.461a.56.56,0,0,1,.332-.455.385.385,0,0,1,.48.1,22.113,22.113,0,0,0,1.59,1.9,6.8,6.8,0,0,0,2.929,2.14,1.49,1.49,0,0,0,1.045-.164,3.064,3.064,0,0,0,.866-.745,5.992,5.992,0,0,0,.806-1.275.533.533,0,0,1,.585-.323.366.366,0,0,1,.211.532A7.132,7.132,0,0,1,30.066,2.8a4.2,4.2,0,0,1-1.2,1.021,2.414,2.414,0,0,1-1.67.27A7.251,7.251,0,0,1,23.9,1.746c-.346-.369-.657-.728-.912-1.037L22.679,5.3a.559.559,0,0,1-.3.442A.4.4,0,0,1,21.9,5.7L18.744,2.568,18.281,7.2a.561.561,0,0,1-.308.43.4.4,0,0,1-.467-.042l-3.04-2.948-.983,4.809a.569.569,0,0,1-.319.392.4.4,0,0,1-.443-.047L9.893,7.173l-.415,4.158a.559.559,0,0,1-.281.415A.508.508,0,0,1,9,11.812Z" transform="translate(125.191 265.963) rotate(45)" fill="#1065a0"/><path d="M-.38,3.242a.135.135,0,0,1-.083-.027.086.086,0,0,1,0-.139L3.624-.469a.14.14,0,0,1,.17,0,.086.086,0,0,1,0,.139L-.292,3.211A.134.134,0,0,1-.38,3.242Z" transform="translate(124.334 277.624)" fill="#fff"/><path d="M-.139,4.621a.112.112,0,0,1-.12-.095L-.5-.4A.109.109,0,0,1-.384-.5a.113.113,0,0,1,.125.094l.241,4.924a.109.109,0,0,1-.115.1Z" transform="translate(128.425 277.624)" fill="#fff"/><path d="M-.38,3.045A.133.133,0,0,1-.471,3.01a.087.087,0,0,1,.014-.139L4.355-.477a.14.14,0,0,1,.17.011.087.087,0,0,1-.014.139L-.3,3.022A.137.137,0,0,1-.38,3.045Z" transform="translate(128.666 279.199)" fill="#fff"/><path d="M.583,5.605A.115.115,0,0,1,.464,5.52L-.5-.389A.1.1,0,0,1-.4-.5.118.118,0,0,1-.26-.415L.7,5.494A.1.1,0,0,1,.6,5.6Z" transform="translate(123.371 275.26)" fill="#fff"/><path d="M-.38,4.818a.111.111,0,0,1-.12-.1V-.4A.111.111,0,0,1-.38-.5a.111.111,0,0,1,.12.1V4.719A.111.111,0,0,1-.38,4.818Z" transform="translate(133.478 279.199)" fill="#fff"/><path d="M-.38,3.439A.135.135,0,0,1-.465,3.41a.086.086,0,0,1,0-.139L4.107-.471a.14.14,0,0,1,.17,0,.086.086,0,0,1,0,.139L-.295,3.41A.135.135,0,0,1-.38,3.439Z" transform="translate(133.478 280.578)" fill="#fff"/><path d="M-.38,5.211a.111.111,0,0,1-.12-.1V-.4A.111.111,0,0,1-.38-.5a.111.111,0,0,1,.12.1V5.113A.111.111,0,0,1-.38,5.211Z" transform="translate(138.051 280.578)" fill="#fff"/><path d="M-.38,3.636a.136.136,0,0,1-.08-.025.087.087,0,0,1-.009-.139L3.862-.467a.14.14,0,0,1,.17-.007.087.087,0,0,1,.009.139L-.29,3.6A.133.133,0,0,1-.38,3.636Z" transform="translate(138.051 282.154)" fill="#fff"/></g><path d="M0,0A12.312,12.312,0,0,0,5.048,2.495,11.448,11.448,0,0,0,10.5,1.75h0l.649-.291" transform="translate(198.959 98.114)" fill="none" stroke="#5b666b" stroke-linecap="round" stroke-width="3"/><g transform="matrix(-0.966, -0.259, 0.259, -0.966, 233.286, 91.63)"><path d="M9.465.262a.373.373,0,0,0-.253.061L5.859,2.668a3.2,3.2,0,0,0-.015-.836A2.077,2.077,0,0,0,5.312.713,2.542,2.542,0,0,0,3.452,0,9.752,9.752,0,0,0,.229.633a.374.374,0,0,0-.174.551.523.523,0,0,0,.6.289A9.033,9.033,0,0,1,3.6.881a1.661,1.661,0,0,1,1.127.364,1.533,1.533,0,0,1,.23,1.341,4.39,4.39,0,0,1-.268.958.49.49,0,0,0,.16.545.452.452,0,0,0,.546.071l3.759-2.63.429,4.3a.561.561,0,0,0,.3.428.407.407,0,0,0,.465-.036l2.915-2.706.987,4.83a.569.569,0,0,0,.323.394.4.4,0,0,0,.444-.053l2.951-2.862.464,4.65a.562.562,0,0,0,.31.431.4.4,0,0,0,.467-.046l3.125-3.1.322,4.781A.56.56,0,0,0,23,12.99a.385.385,0,0,0,.48-.1,22.113,22.113,0,0,1,1.59-1.9A6.8,6.8,0,0,1,28,8.849a1.49,1.49,0,0,1,1.045.164,3.064,3.064,0,0,1,.866.745,5.992,5.992,0,0,1,.806,1.275.533.533,0,0,0,.585.323.366.366,0,0,0,.211-.532,7.132,7.132,0,0,0-.976-1.548,4.2,4.2,0,0,0-1.2-1.021,2.414,2.414,0,0,0-1.67-.27,7.251,7.251,0,0,0-3.292,2.342c-.346.369-.657.728-.912,1.037l-.31-4.594a.559.559,0,0,0-.3-.442.4.4,0,0,0-.474.043L19.212,9.506,18.749,4.87a.561.561,0,0,0-.308-.43.4.4,0,0,0-.467.042l-3.04,2.948-.983-4.809a.569.569,0,0,0-.319-.392.4.4,0,0,0-.443.047L10.362,4.9,9.946.743A.559.559,0,0,0,9.666.328.508.508,0,0,0,9.465.262Z" transform="translate(0 22.311) rotate(-45)" fill="#1065a0"/><path d="M.12,0A.135.135,0,0,0,.038.027a.086.086,0,0,0,0,.139L4.124,3.711a.14.14,0,0,0,.17,0,.086.086,0,0,0,0-.139L.208.031A.134.134,0,0,0,.12,0Z" transform="translate(7.512 15.614)" fill="#fff"/><path d="M.361,0a.112.112,0,0,0-.12.095L0,5.018a.109.109,0,0,0,.115.1.113.113,0,0,0,.125-.094L.481.1A.109.109,0,0,0,.366,0Z" transform="translate(11.603 14.236)" fill="#fff"/><path d="M.12,0A.133.133,0,0,0,.029.035.087.087,0,0,0,.042.174L4.855,3.522a.14.14,0,0,0,.17-.011.087.087,0,0,0-.014-.139L.2.023A.137.137,0,0,0,.12,0Z" transform="translate(11.844 14.236)" fill="#fff"/><path d="M1.083,0A.115.115,0,0,0,.964.085L0,5.994A.1.1,0,0,0,.1,6.1.118.118,0,0,0,.24,6.02L1.2.111A.1.1,0,0,0,1.1,0Z" transform="translate(6.549 15.614)" fill="#fff"/><path d="M.12,0A.111.111,0,0,0,0,.1V5.219a.111.111,0,0,0,.12.1.111.111,0,0,0,.12-.1V.1A.111.111,0,0,0,.12,0Z" transform="translate(16.656 12.463)" fill="#fff"/><path d="M.12,0A.135.135,0,0,0,.035.029a.086.086,0,0,0,0,.139L4.607,3.91a.14.14,0,0,0,.17,0,.086.086,0,0,0,0-.139L.205.029A.135.135,0,0,0,.12,0Z" transform="translate(16.656 12.463)" fill="#fff"/><path d="M.12,0A.111.111,0,0,0,0,.1V5.613a.111.111,0,0,0,.12.1.111.111,0,0,0,.12-.1V.1A.111.111,0,0,0,.12,0Z" transform="translate(21.229 10.691)" fill="#fff"/><path d="M.12,0A.136.136,0,0,0,.04.025.087.087,0,0,0,.031.164L4.362,4.1a.14.14,0,0,0,.17.007.087.087,0,0,0,.009-.139L.21.033A.133.133,0,0,0,.12,0Z" transform="translate(21.229 10.691)" fill="#fff"/></g><g transform="translate(61.709 -123.15)"><g transform="translate(122 188)" fill="none" stroke="#5b666b" stroke-width="4"><ellipse cx="22" cy="21.5" rx="22" ry="21.5" stroke="none"/><ellipse cx="22" cy="21.5" rx="20" ry="19.5" fill="none"/></g><path d="M0,0,12.664,14.426l1.845,2.079" transform="translate(155.198 227.055)" fill="none" stroke="#5b666b" stroke-linecap="round" stroke-width="6"/></g><g transform="matrix(0.966, -0.259, 0.259, 0.966, -48.934, -121.305)"><path d="M9,11.812a.373.373,0,0,1-.253-.061L5.391,9.406a3.2,3.2,0,0,1-.015.836,2.077,2.077,0,0,1-.532,1.119,2.542,2.542,0,0,1-1.86.711A9.752,9.752,0,0,1-.24,11.441a.374.374,0,0,1-.174-.551.523.523,0,0,1,.6-.289,9.033,9.033,0,0,0,2.952.592,1.661,1.661,0,0,0,1.127-.364,1.533,1.533,0,0,0,.23-1.341,4.39,4.39,0,0,0-.268-.958.49.49,0,0,1,.16-.545.452.452,0,0,1,.546-.071l3.759,2.63.429-4.3a.561.561,0,0,1,.3-.428.407.407,0,0,1,.465.036L12.8,8.561l.987-4.83a.569.569,0,0,1,.323-.394.4.4,0,0,1,.444.053l2.951,2.862.464-4.65a.562.562,0,0,1,.31-.431.4.4,0,0,1,.467.046l3.125,3.1L22.2-.461a.56.56,0,0,1,.332-.455.385.385,0,0,1,.48.1,22.113,22.113,0,0,0,1.59,1.9,6.8,6.8,0,0,0,2.929,2.14,1.49,1.49,0,0,0,1.045-.164,3.064,3.064,0,0,0,.866-.745,5.992,5.992,0,0,0,.806-1.275.533.533,0,0,1,.585-.323.366.366,0,0,1,.211.532A7.132,7.132,0,0,1,30.066,2.8a4.2,4.2,0,0,1-1.2,1.021,2.414,2.414,0,0,1-1.67.27A7.251,7.251,0,0,1,23.9,1.746c-.346-.369-.657-.728-.912-1.037L22.679,5.3a.559.559,0,0,1-.3.442A.4.4,0,0,1,21.9,5.7L18.744,2.568,18.281,7.2a.561.561,0,0,1-.308.43.4.4,0,0,1-.467-.042l-3.04-2.948-.983,4.809a.569.569,0,0,1-.319.392.4.4,0,0,1-.443-.047L9.893,7.173l-.415,4.158a.559.559,0,0,1-.281.415A.508.508,0,0,1,9,11.812Z" transform="translate(125.191 265.963) rotate(45)" fill="#acb1b3"/><path d="M-.38,3.242a.135.135,0,0,1-.083-.027.086.086,0,0,1,0-.139L3.624-.469a.14.14,0,0,1,.17,0,.086.086,0,0,1,0,.139L-.292,3.211A.134.134,0,0,1-.38,3.242Z" transform="translate(124.334 277.624)" fill="#fff"/><path d="M-.139,4.621a.112.112,0,0,1-.12-.095L-.5-.4A.109.109,0,0,1-.384-.5a.113.113,0,0,1,.125.094l.241,4.924a.109.109,0,0,1-.115.1Z" transform="translate(128.425 277.624)" fill="#fff"/><path d="M-.38,3.045A.133.133,0,0,1-.471,3.01a.087.087,0,0,1,.014-.139L4.355-.477a.14.14,0,0,1,.17.011.087.087,0,0,1-.014.139L-.3,3.022A.137.137,0,0,1-.38,3.045Z" transform="translate(128.666 279.199)" fill="#fff"/><path d="M.583,5.605A.115.115,0,0,1,.464,5.52L-.5-.389A.1.1,0,0,1-.4-.5.118.118,0,0,1-.26-.415L.7,5.494A.1.1,0,0,1,.6,5.6Z" transform="translate(123.371 275.26)" fill="#fff"/><path d="M-.38,4.818a.111.111,0,0,1-.12-.1V-.4A.111.111,0,0,1-.38-.5a.111.111,0,0,1,.12.1V4.719A.111.111,0,0,1-.38,4.818Z" transform="translate(133.478 279.199)" fill="#fff"/><path d="M-.38,3.439A.135.135,0,0,1-.465,3.41a.086.086,0,0,1,0-.139L4.107-.471a.14.14,0,0,1,.17,0,.086.086,0,0,1,0,.139L-.295,3.41A.135.135,0,0,1-.38,3.439Z" transform="translate(133.478 280.578)" fill="#fff"/><path d="M-.38,5.211a.111.111,0,0,1-.12-.1V-.4A.111.111,0,0,1-.38-.5a.111.111,0,0,1,.12.1V5.113A.111.111,0,0,1-.38,5.211Z" transform="translate(138.051 280.578)" fill="#fff"/><path d="M-.38,3.636a.136.136,0,0,1-.08-.025.087.087,0,0,1-.009-.139L3.862-.467a.14.14,0,0,1,.17-.007.087.087,0,0,1,.009.139L-.29,3.6A.133.133,0,0,1-.38,3.636Z" transform="translate(138.051 282.154)" fill="#fff"/></g><g transform="matrix(-0.966, -0.259, 0.259, -0.966, 273.898, 134.947)"><path d="M9.465.262a.373.373,0,0,0-.253.061L5.859,2.668a3.2,3.2,0,0,0-.015-.836A2.077,2.077,0,0,0,5.312.713,2.542,2.542,0,0,0,3.452,0,9.752,9.752,0,0,0,.229.633a.374.374,0,0,0-.174.551.523.523,0,0,0,.6.289A9.033,9.033,0,0,1,3.6.881a1.661,1.661,0,0,1,1.127.364,1.533,1.533,0,0,1,.23,1.341,4.39,4.39,0,0,1-.268.958.49.49,0,0,0,.16.545.452.452,0,0,0,.546.071l3.759-2.63.429,4.3a.561.561,0,0,0,.3.428.407.407,0,0,0,.465-.036l2.915-2.706.987,4.83a.569.569,0,0,0,.323.394.4.4,0,0,0,.444-.053l2.951-2.862.464,4.65a.562.562,0,0,0,.31.431.4.4,0,0,0,.467-.046l3.125-3.1.322,4.781A.56.56,0,0,0,23,12.99a.385.385,0,0,0,.48-.1,22.113,22.113,0,0,1,1.59-1.9A6.8,6.8,0,0,1,28,8.849a1.49,1.49,0,0,1,1.045.164,3.064,3.064,0,0,1,.866.745,5.992,5.992,0,0,1,.806,1.275.533.533,0,0,0,.585.323.366.366,0,0,0,.211-.532,7.132,7.132,0,0,0-.976-1.548,4.2,4.2,0,0,0-1.2-1.021,2.414,2.414,0,0,0-1.67-.27,7.251,7.251,0,0,0-3.292,2.342c-.346.369-.657.728-.912,1.037l-.31-4.594a.559.559,0,0,0-.3-.442.4.4,0,0,0-.474.043L19.212,9.506,18.749,4.87a.561.561,0,0,0-.308-.43.4.4,0,0,0-.467.042l-3.04,2.948-.983-4.809a.569.569,0,0,0-.319-.392.4.4,0,0,0-.443.047L10.362,4.9,9.946.743A.559.559,0,0,0,9.666.328.508.508,0,0,0,9.465.262Z" transform="translate(0 22.311) rotate(-45)" fill="#acb1b3"/><path d="M.12,0A.135.135,0,0,0,.038.027a.086.086,0,0,0,0,.139L4.124,3.711a.14.14,0,0,0,.17,0,.086.086,0,0,0,0-.139L.208.031A.134.134,0,0,0,.12,0Z" transform="translate(7.512 15.614)" fill="#fff"/><path d="M.361,0a.112.112,0,0,0-.12.095L0,5.018a.109.109,0,0,0,.115.1.113.113,0,0,0,.125-.094L.481.1A.109.109,0,0,0,.366,0Z" transform="translate(11.603 14.236)" fill="#fff"/><path d="M.12,0A.133.133,0,0,0,.029.035.087.087,0,0,0,.042.174L4.855,3.522a.14.14,0,0,0,.17-.011.087.087,0,0,0-.014-.139L.2.023A.137.137,0,0,0,.12,0Z" transform="translate(11.844 14.236)" fill="#fff"/><path d="M1.083,0A.115.115,0,0,0,.964.085L0,5.994A.1.1,0,0,0,.1,6.1.118.118,0,0,0,.24,6.02L1.2.111A.1.1,0,0,0,1.1,0Z" transform="translate(6.549 15.614)" fill="#fff"/><path d="M.12,0A.111.111,0,0,0,0,.1V5.219a.111.111,0,0,0,.12.1.111.111,0,0,0,.12-.1V.1A.111.111,0,0,0,.12,0Z" transform="translate(16.656 12.463)" fill="#fff"/><path d="M.12,0A.135.135,0,0,0,.035.029a.086.086,0,0,0,0,.139L4.607,3.91a.14.14,0,0,0,.17,0,.086.086,0,0,0,0-.139L.205.029A.135.135,0,0,0,.12,0Z" transform="translate(16.656 12.463)" fill="#fff"/><path d="M.12,0A.111.111,0,0,0,0,.1V5.613a.111.111,0,0,0,.12.1.111.111,0,0,0,.12-.1V.1A.111.111,0,0,0,.12,0Z" transform="translate(21.229 10.691)" fill="#fff"/><path d="M.12,0A.136.136,0,0,0,.04.025.087.087,0,0,0,.031.164L4.362,4.1a.14.14,0,0,0,.17.007.087.087,0,0,0,.009-.139L.21.033A.133.133,0,0,0,.12,0Z" transform="translate(21.229 10.691)" fill="#fff"/></g><g transform="matrix(-0.966, -0.259, 0.259, -0.966, 273.898, 76.63)"><path d="M9.465.262a.373.373,0,0,0-.253.061L5.859,2.668a3.2,3.2,0,0,0-.015-.836A2.077,2.077,0,0,0,5.312.713,2.542,2.542,0,0,0,3.452,0,9.752,9.752,0,0,0,.229.633a.374.374,0,0,0-.174.551.523.523,0,0,0,.6.289A9.033,9.033,0,0,1,3.6.881a1.661,1.661,0,0,1,1.127.364,1.533,1.533,0,0,1,.23,1.341,4.39,4.39,0,0,1-.268.958.49.49,0,0,0,.16.545.452.452,0,0,0,.546.071l3.759-2.63.429,4.3a.561.561,0,0,0,.3.428.407.407,0,0,0,.465-.036l2.915-2.706.987,4.83a.569.569,0,0,0,.323.394.4.4,0,0,0,.444-.053l2.951-2.862.464,4.65a.562.562,0,0,0,.31.431.4.4,0,0,0,.467-.046l3.125-3.1.322,4.781A.56.56,0,0,0,23,12.99a.385.385,0,0,0,.48-.1,22.113,22.113,0,0,1,1.59-1.9A6.8,6.8,0,0,1,28,8.849a1.49,1.49,0,0,1,1.045.164,3.064,3.064,0,0,1,.866.745,5.992,5.992,0,0,1,.806,1.275.533.533,0,0,0,.585.323.366.366,0,0,0,.211-.532,7.132,7.132,0,0,0-.976-1.548,4.2,4.2,0,0,0-1.2-1.021,2.414,2.414,0,0,0-1.67-.27,7.251,7.251,0,0,0-3.292,2.342c-.346.369-.657.728-.912,1.037l-.31-4.594a.559.559,0,0,0-.3-.442.4.4,0,0,0-.474.043L19.212,9.506,18.749,4.87a.561.561,0,0,0-.308-.43.4.4,0,0,0-.467.042l-3.04,2.948-.983-4.809a.569.569,0,0,0-.319-.392.4.4,0,0,0-.443.047L10.362,4.9,9.946.743A.559.559,0,0,0,9.666.328.508.508,0,0,0,9.465.262Z" transform="translate(0 22.311) rotate(-45)" fill="#acb1b3"/><path d="M.12,0A.135.135,0,0,0,.038.027a.086.086,0,0,0,0,.139L4.124,3.711a.14.14,0,0,0,.17,0,.086.086,0,0,0,0-.139L.208.031A.134.134,0,0,0,.12,0Z" transform="translate(7.512 15.614)" fill="#fff"/><path d="M.361,0a.112.112,0,0,0-.12.095L0,5.018a.109.109,0,0,0,.115.1.113.113,0,0,0,.125-.094L.481.1A.109.109,0,0,0,.366,0Z" transform="translate(11.603 14.236)" fill="#fff"/><path d="M.12,0A.133.133,0,0,0,.029.035.087.087,0,0,0,.042.174L4.855,3.522a.14.14,0,0,0,.17-.011.087.087,0,0,0-.014-.139L.2.023A.137.137,0,0,0,.12,0Z" transform="translate(11.844 14.236)" fill="#fff"/><path d="M1.083,0A.115.115,0,0,0,.964.085L0,5.994A.1.1,0,0,0,.1,6.1.118.118,0,0,0,.24,6.02L1.2.111A.1.1,0,0,0,1.1,0Z" transform="translate(6.549 15.614)" fill="#fff"/><path d="M.12,0A.111.111,0,0,0,0,.1V5.219a.111.111,0,0,0,.12.1.111.111,0,0,0,.12-.1V.1A.111.111,0,0,0,.12,0Z" transform="translate(16.656 12.463)" fill="#fff"/><path d="M.12,0A.135.135,0,0,0,.035.029a.086.086,0,0,0,0,.139L4.607,3.91a.14.14,0,0,0,.17,0,.086.086,0,0,0,0-.139L.205.029A.135.135,0,0,0,.12,0Z" transform="translate(16.656 12.463)" fill="#fff"/><path d="M.12,0A.111.111,0,0,0,0,.1V5.613a.111.111,0,0,0,.12.1.111.111,0,0,0,.12-.1V.1A.111.111,0,0,0,.12,0Z" transform="translate(21.229 10.691)" fill="#fff"/><path d="M.12,0A.136.136,0,0,0,.04.025.087.087,0,0,0,.031.164L4.362,4.1a.14.14,0,0,0,.17.007.087.087,0,0,0,.009-.139L.21.033A.133.133,0,0,0,.12,0Z" transform="translate(21.229 10.691)" fill="#fff"/></g><g transform="matrix(0.966, -0.259, 0.259, 0.966, -50.239, -176.951)"><path d="M9,11.812a.373.373,0,0,1-.253-.061L5.391,9.406a3.2,3.2,0,0,1-.015.836,2.077,2.077,0,0,1-.532,1.119,2.542,2.542,0,0,1-1.86.711A9.752,9.752,0,0,1-.24,11.441a.374.374,0,0,1-.174-.551.523.523,0,0,1,.6-.289,9.033,9.033,0,0,0,2.952.592,1.661,1.661,0,0,0,1.127-.364,1.533,1.533,0,0,0,.23-1.341,4.39,4.39,0,0,0-.268-.958.49.49,0,0,1,.16-.545.452.452,0,0,1,.546-.071l3.759,2.63.429-4.3a.561.561,0,0,1,.3-.428.407.407,0,0,1,.465.036L12.8,8.561l.987-4.83a.569.569,0,0,1,.323-.394.4.4,0,0,1,.444.053l2.951,2.862.464-4.65a.562.562,0,0,1,.31-.431.4.4,0,0,1,.467.046l3.125,3.1L22.2-.461a.56.56,0,0,1,.332-.455.385.385,0,0,1,.48.1,22.113,22.113,0,0,0,1.59,1.9,6.8,6.8,0,0,0,2.929,2.14,1.49,1.49,0,0,0,1.045-.164,3.064,3.064,0,0,0,.866-.745,5.992,5.992,0,0,0,.806-1.275.533.533,0,0,1,.585-.323.366.366,0,0,1,.211.532A7.132,7.132,0,0,1,30.066,2.8a4.2,4.2,0,0,1-1.2,1.021,2.414,2.414,0,0,1-1.67.27A7.251,7.251,0,0,1,23.9,1.746c-.346-.369-.657-.728-.912-1.037L22.679,5.3a.559.559,0,0,1-.3.442A.4.4,0,0,1,21.9,5.7L18.744,2.568,18.281,7.2a.561.561,0,0,1-.308.43.4.4,0,0,1-.467-.042l-3.04-2.948-.983,4.809a.569.569,0,0,1-.319.392.4.4,0,0,1-.443-.047L9.893,7.173l-.415,4.158a.559.559,0,0,1-.281.415A.508.508,0,0,1,9,11.812Z" transform="translate(125.191 265.963) rotate(45)" fill="#acb1b3"/><path d="M-.38,3.242a.135.135,0,0,1-.083-.027.086.086,0,0,1,0-.139L3.624-.469a.14.14,0,0,1,.17,0,.086.086,0,0,1,0,.139L-.292,3.211A.134.134,0,0,1-.38,3.242Z" transform="translate(124.334 277.624)" fill="#fff"/><path d="M-.139,4.621a.112.112,0,0,1-.12-.095L-.5-.4A.109.109,0,0,1-.384-.5a.113.113,0,0,1,.125.094l.241,4.924a.109.109,0,0,1-.115.1Z" transform="translate(128.425 277.624)" fill="#fff"/><path d="M-.38,3.045A.133.133,0,0,1-.471,3.01a.087.087,0,0,1,.014-.139L4.355-.477a.14.14,0,0,1,.17.011.087.087,0,0,1-.014.139L-.3,3.022A.137.137,0,0,1-.38,3.045Z" transform="translate(128.666 279.199)" fill="#fff"/><path d="M.583,5.605A.115.115,0,0,1,.464,5.52L-.5-.389A.1.1,0,0,1-.4-.5.118.118,0,0,1-.26-.415L.7,5.494A.1.1,0,0,1,.6,5.6Z" transform="translate(123.371 275.26)" fill="#fff"/><path d="M-.38,4.818a.111.111,0,0,1-.12-.1V-.4A.111.111,0,0,1-.38-.5a.111.111,0,0,1,.12.1V4.719A.111.111,0,0,1-.38,4.818Z" transform="translate(133.478 279.199)" fill="#fff"/><path d="M-.38,3.439A.135.135,0,0,1-.465,3.41a.086.086,0,0,1,0-.139L4.107-.471a.14.14,0,0,1,.17,0,.086.086,0,0,1,0,.139L-.295,3.41A.135.135,0,0,1-.38,3.439Z" transform="translate(133.478 280.578)" fill="#fff"/><path d="M-.38,5.211a.111.111,0,0,1-.12-.1V-.4A.111.111,0,0,1-.38-.5a.111.111,0,0,1,.12.1V5.113A.111.111,0,0,1-.38,5.211Z" transform="translate(138.051 280.578)" fill="#fff"/><path d="M-.38,3.636a.136.136,0,0,1-.08-.025.087.087,0,0,1-.009-.139L3.862-.467a.14.14,0,0,1,.17-.007.087.087,0,0,1,.009.139L-.29,3.6A.133.133,0,0,1-.38,3.636Z" transform="translate(138.051 282.154)" fill="#fff"/></g></g></svg>