<svg xmlns="http://www.w3.org/2000/svg" width="170" height="116" viewBox="0 0 170 116">
  <g id="Search_2" transform="translate(-120 -151)">
    <g id="Gruppe_1" data-name="Gruppe 1" transform="translate(-3 127)">
      <g id="Rechteck_1" data-name="Rechteck 1" transform="translate(123 24)" fill="#fff" stroke="#5b666a" stroke-linejoin="round" stroke-width="3">
        <rect width="170" height="116" stroke="none"/>
        <rect x="1.5" y="1.5" width="167" height="113" fill="none"/>
      </g>
      <path id="Pfad_1" data-name="Pfad 1" d="M-.793-5.229h169.14" transform="translate(123.793 48.5)" fill="none" stroke="#5b666a" stroke-width="3"/>
    </g>
    <g id="Gruppe_3" data-name="Gruppe 3" transform="translate(-2.562 -18)">
      <path id="Pfad_2" data-name="Pfad 2" d="M0,0A12.312,12.312,0,0,0,5.048,2.5,11.448,11.448,0,0,0,10.5,1.75h0l.649-.291" transform="translate(198.959 226.114)" fill="none" stroke="#5b666b" stroke-linecap="round" stroke-width="3"/>
      <g id="Gruppe_2" data-name="Gruppe 2" transform="translate(61.709 4.85)">
        <g id="Ellipse_1" data-name="Ellipse 1" transform="translate(122 188)" fill="none" stroke="#5b666b" stroke-width="4">
          <ellipse cx="22" cy="21.5" rx="22" ry="21.5" stroke="none"/>
          <ellipse cx="22" cy="21.5" rx="20" ry="19.5" fill="none"/>
        </g>
        <path id="Pfad_3" data-name="Pfad 3" d="M0,0,12.664,14.426,14.509,16.5" transform="translate(155.198 227.055)" fill="none" stroke="#5b666b" stroke-linecap="round" stroke-width="6"/>
      </g>
    </g>
    <g id="Gruppe_4" data-name="Gruppe 4" transform="translate(213.981 215.63) rotate(-164.991)">
      <path id="Pfad_4" data-name="Pfad 4" d="M9.465.262a.373.373,0,0,0-.253.061L5.859,2.668a3.2,3.2,0,0,0-.015-.836A2.077,2.077,0,0,0,5.312.713,2.542,2.542,0,0,0,3.452,0,9.752,9.752,0,0,0,.229.633a.374.374,0,0,0-.174.551.523.523,0,0,0,.6.289A9.033,9.033,0,0,1,3.6.881a1.661,1.661,0,0,1,1.127.364,1.533,1.533,0,0,1,.23,1.341,4.39,4.39,0,0,1-.268.958.49.49,0,0,0,.16.545.452.452,0,0,0,.546.071L9.154,1.53l.429,4.3a.561.561,0,0,0,.3.428.407.407,0,0,0,.465-.036l2.915-2.706.987,4.83a.569.569,0,0,0,.323.394.4.4,0,0,0,.444-.053l2.951-2.862.464,4.65a.562.562,0,0,0,.31.431.4.4,0,0,0,.467-.046l3.125-3.1.322,4.781A.56.56,0,0,0,23,12.99a.385.385,0,0,0,.48-.1,22.113,22.113,0,0,1,1.59-1.9A6.8,6.8,0,0,1,28,8.849a1.49,1.49,0,0,1,1.045.164,3.064,3.064,0,0,1,.866.745,5.992,5.992,0,0,1,.806,1.275.533.533,0,0,0,.585.323.366.366,0,0,0,.211-.532,7.132,7.132,0,0,0-.976-1.548,4.2,4.2,0,0,0-1.2-1.021,2.414,2.414,0,0,0-1.67-.27,7.251,7.251,0,0,0-3.292,2.342c-.346.369-.657.728-.912,1.037l-.31-4.594a.559.559,0,0,0-.3-.442.4.4,0,0,0-.474.043L19.212,9.506,18.749,4.87a.561.561,0,0,0-.308-.43.4.4,0,0,0-.467.042L14.934,7.43l-.983-4.809a.569.569,0,0,0-.319-.392.4.4,0,0,0-.443.047L10.362,4.9,9.946.743a.559.559,0,0,0-.28-.415.508.508,0,0,0-.2-.066Z" transform="translate(0 22.311) rotate(-45)" fill="#1065a0"/>
      <path id="Pfad_5" data-name="Pfad 5" d="M.12,0A.135.135,0,0,0,.038.027a.086.086,0,0,0,0,.139L4.124,3.711a.14.14,0,0,0,.17,0,.086.086,0,0,0,0-.139L.208.031A.134.134,0,0,0,.12,0Z" transform="translate(7.512 15.614)" fill="#fff"/>
      <path id="Pfad_6" data-name="Pfad 6" d="M.361,0a.112.112,0,0,0-.12.095L0,5.018a.109.109,0,0,0,.115.1A.113.113,0,0,0,.24,5.024L.481.1A.109.109,0,0,0,.366,0Z" transform="translate(11.603 14.236)" fill="#fff"/>
      <path id="Pfad_7" data-name="Pfad 7" d="M.12,0A.133.133,0,0,0,.029.035.087.087,0,0,0,.042.174L4.855,3.522a.14.14,0,0,0,.17-.011.087.087,0,0,0-.014-.139L.2.023A.137.137,0,0,0,.12,0Z" transform="translate(11.844 14.236)" fill="#fff"/>
      <path id="Pfad_8" data-name="Pfad 8" d="M1.083,0A.115.115,0,0,0,.964.085L0,5.994A.1.1,0,0,0,.1,6.1a.118.118,0,0,0,.14-.08L1.2.111A.1.1,0,0,0,1.1,0Z" transform="translate(6.549 15.614)" fill="#fff"/>
      <path id="Pfad_9" data-name="Pfad 9" d="M.12,0A.111.111,0,0,0,0,.1V5.219a.111.111,0,0,0,.12.1.111.111,0,0,0,.12-.1V.1A.111.111,0,0,0,.12,0Z" transform="translate(16.656 12.463)" fill="#fff"/>
      <path id="Pfad_10" data-name="Pfad 10" d="M.12,0A.135.135,0,0,0,.035.029a.086.086,0,0,0,0,.139L4.607,3.91a.14.14,0,0,0,.17,0,.086.086,0,0,0,0-.139L.2.029A.135.135,0,0,0,.12,0Z" transform="translate(16.656 12.463)" fill="#fff"/>
      <path id="Pfad_11" data-name="Pfad 11" d="M.12,0A.111.111,0,0,0,0,.1V5.613a.111.111,0,0,0,.12.1.111.111,0,0,0,.12-.1V.1A.111.111,0,0,0,.12,0Z" transform="translate(21.229 10.691)" fill="#fff"/>
      <path id="Pfad_12" data-name="Pfad 12" d="M.12,0A.136.136,0,0,0,.04.025.087.087,0,0,0,.031.164L4.362,4.1a.14.14,0,0,0,.17.007.087.087,0,0,0,.009-.139L.21.033A.133.133,0,0,0,.12,0Z" transform="translate(21.229 10.691)" fill="#fff"/>
    </g>
    <g id="Ellipse_2" data-name="Ellipse 2" transform="translate(234 173)" fill="#fff" stroke="#707070" stroke-width="0.5" opacity="0.5">
      <ellipse cx="21" cy="17" rx="21" ry="17" stroke="none"/>
      <ellipse cx="21" cy="17" rx="20.75" ry="16.75" fill="none"/>
    </g>
    <g id="Gruppe_5" data-name="Gruppe 5" transform="translate(237.072 170.561)">
      <path id="Pfad_13" data-name="Pfad 13" d="M9.465.262a.373.373,0,0,0-.253.061L5.859,2.668a3.2,3.2,0,0,0-.015-.836A2.077,2.077,0,0,0,5.312.713,2.542,2.542,0,0,0,3.452,0,9.752,9.752,0,0,0,.229.633a.374.374,0,0,0-.174.551.523.523,0,0,0,.6.289A9.033,9.033,0,0,1,3.6.881a1.661,1.661,0,0,1,1.127.364,1.533,1.533,0,0,1,.23,1.341,4.39,4.39,0,0,1-.268.958.49.49,0,0,0,.16.545.452.452,0,0,0,.546.071L9.154,1.53l.429,4.3a.561.561,0,0,0,.3.428.407.407,0,0,0,.465-.036l2.915-2.706.987,4.83a.569.569,0,0,0,.323.394.4.4,0,0,0,.444-.053l2.951-2.862.464,4.65a.562.562,0,0,0,.31.431.4.4,0,0,0,.467-.046l3.125-3.1.322,4.781A.56.56,0,0,0,23,12.99a.385.385,0,0,0,.48-.1,22.113,22.113,0,0,1,1.59-1.9A6.8,6.8,0,0,1,28,8.849a1.49,1.49,0,0,1,1.045.164,3.064,3.064,0,0,1,.866.745,5.992,5.992,0,0,1,.806,1.275.533.533,0,0,0,.585.323.366.366,0,0,0,.211-.532,7.132,7.132,0,0,0-.976-1.548,4.2,4.2,0,0,0-1.2-1.021,2.414,2.414,0,0,0-1.67-.27,7.251,7.251,0,0,0-3.292,2.342c-.346.369-.657.728-.912,1.037l-.31-4.594a.559.559,0,0,0-.3-.442.4.4,0,0,0-.474.043L19.212,9.506,18.749,4.87a.561.561,0,0,0-.308-.43.4.4,0,0,0-.467.042L14.934,7.43l-.983-4.809a.569.569,0,0,0-.319-.392.4.4,0,0,0-.443.047L10.362,4.9,9.946.743a.559.559,0,0,0-.28-.415.508.508,0,0,0-.2-.066Z" transform="translate(0 22.311) rotate(-45)" fill="#1065a0"/>
      <path id="Pfad_14" data-name="Pfad 14" d="M.12,0A.135.135,0,0,0,.038.027a.086.086,0,0,0,0,.139L4.124,3.711a.14.14,0,0,0,.17,0,.086.086,0,0,0,0-.139L.208.031A.134.134,0,0,0,.12,0Z" transform="translate(7.512 15.614)" fill="#fff"/>
      <path id="Pfad_15" data-name="Pfad 15" d="M.361,0a.112.112,0,0,0-.12.095L0,5.018a.109.109,0,0,0,.115.1A.113.113,0,0,0,.24,5.024L.481.1A.109.109,0,0,0,.366,0Z" transform="translate(11.603 14.236)" fill="#fff"/>
      <path id="Pfad_16" data-name="Pfad 16" d="M.12,0A.133.133,0,0,0,.029.035.087.087,0,0,0,.042.174L4.855,3.522a.14.14,0,0,0,.17-.011.087.087,0,0,0-.014-.139L.2.023A.137.137,0,0,0,.12,0Z" transform="translate(11.844 14.236)" fill="#fff"/>
      <path id="Pfad_17" data-name="Pfad 17" d="M1.083,0A.115.115,0,0,0,.964.085L0,5.994A.1.1,0,0,0,.1,6.1a.118.118,0,0,0,.14-.08L1.2.111A.1.1,0,0,0,1.1,0Z" transform="translate(6.549 15.614)" fill="#fff"/>
      <path id="Pfad_18" data-name="Pfad 18" d="M.12,0A.111.111,0,0,0,0,.1V5.219a.111.111,0,0,0,.12.1.111.111,0,0,0,.12-.1V.1A.111.111,0,0,0,.12,0Z" transform="translate(16.656 12.463)" fill="#fff"/>
      <path id="Pfad_19" data-name="Pfad 19" d="M.12,0A.135.135,0,0,0,.035.029a.086.086,0,0,0,0,.139L4.607,3.91a.14.14,0,0,0,.17,0,.086.086,0,0,0,0-.139L.2.029A.135.135,0,0,0,.12,0Z" transform="translate(16.656 12.463)" fill="#fff"/>
      <path id="Pfad_20" data-name="Pfad 20" d="M.12,0A.111.111,0,0,0,0,.1V5.613a.111.111,0,0,0,.12.1.111.111,0,0,0,.12-.1V.1A.111.111,0,0,0,.12,0Z" transform="translate(21.229 10.691)" fill="#fff"/>
      <path id="Pfad_21" data-name="Pfad 21" d="M.12,0A.136.136,0,0,0,.04.025.087.087,0,0,0,.031.164L4.362,4.1a.14.14,0,0,0,.17.007.087.087,0,0,0,.009-.139L.21.033A.133.133,0,0,0,.12,0Z" transform="translate(21.229 10.691)" fill="#fff"/>
    </g>
    <g id="Gruppe_6" data-name="Gruppe 6" transform="translate(267.524 215.63) rotate(-164.991)">
      <path id="Pfad_22" data-name="Pfad 22" d="M9.465.262a.373.373,0,0,0-.253.061L5.859,2.668a3.2,3.2,0,0,0-.015-.836A2.077,2.077,0,0,0,5.312.713,2.542,2.542,0,0,0,3.452,0,9.752,9.752,0,0,0,.229.633a.374.374,0,0,0-.174.551.523.523,0,0,0,.6.289A9.033,9.033,0,0,1,3.6.881a1.661,1.661,0,0,1,1.127.364,1.533,1.533,0,0,1,.23,1.341,4.39,4.39,0,0,1-.268.958.49.49,0,0,0,.16.545.452.452,0,0,0,.546.071L9.154,1.53l.429,4.3a.561.561,0,0,0,.3.428.407.407,0,0,0,.465-.036l2.915-2.706.987,4.83a.569.569,0,0,0,.323.394.4.4,0,0,0,.444-.053l2.951-2.862.464,4.65a.562.562,0,0,0,.31.431.4.4,0,0,0,.467-.046l3.125-3.1.322,4.781A.56.56,0,0,0,23,12.99a.385.385,0,0,0,.48-.1,22.113,22.113,0,0,1,1.59-1.9A6.8,6.8,0,0,1,28,8.849a1.49,1.49,0,0,1,1.045.164,3.064,3.064,0,0,1,.866.745,5.992,5.992,0,0,1,.806,1.275.533.533,0,0,0,.585.323.366.366,0,0,0,.211-.532,7.132,7.132,0,0,0-.976-1.548,4.2,4.2,0,0,0-1.2-1.021,2.414,2.414,0,0,0-1.67-.27,7.251,7.251,0,0,0-3.292,2.342c-.346.369-.657.728-.912,1.037l-.31-4.594a.559.559,0,0,0-.3-.442.4.4,0,0,0-.474.043L19.212,9.506,18.749,4.87a.561.561,0,0,0-.308-.43.4.4,0,0,0-.467.042L14.934,7.43l-.983-4.809a.569.569,0,0,0-.319-.392.4.4,0,0,0-.443.047L10.362,4.9,9.946.743a.559.559,0,0,0-.28-.415.508.508,0,0,0-.2-.066Z" transform="translate(0 22.311) rotate(-45)" fill="#1065a0"/>
      <path id="Pfad_23" data-name="Pfad 23" d="M.12,0A.135.135,0,0,0,.038.027a.086.086,0,0,0,0,.139L4.124,3.711a.14.14,0,0,0,.17,0,.086.086,0,0,0,0-.139L.208.031A.134.134,0,0,0,.12,0Z" transform="translate(7.512 15.614)" fill="#fff"/>
      <path id="Pfad_24" data-name="Pfad 24" d="M.361,0a.112.112,0,0,0-.12.095L0,5.018a.109.109,0,0,0,.115.1A.113.113,0,0,0,.24,5.024L.481.1A.109.109,0,0,0,.366,0Z" transform="translate(11.603 14.236)" fill="#fff"/>
      <path id="Pfad_25" data-name="Pfad 25" d="M.12,0A.133.133,0,0,0,.029.035.087.087,0,0,0,.042.174L4.855,3.522a.14.14,0,0,0,.17-.011.087.087,0,0,0-.014-.139L.2.023A.137.137,0,0,0,.12,0Z" transform="translate(11.844 14.236)" fill="#fff"/>
      <path id="Pfad_26" data-name="Pfad 26" d="M1.083,0A.115.115,0,0,0,.964.085L0,5.994A.1.1,0,0,0,.1,6.1a.118.118,0,0,0,.14-.08L1.2.111A.1.1,0,0,0,1.1,0Z" transform="translate(6.549 15.614)" fill="#fff"/>
      <path id="Pfad_27" data-name="Pfad 27" d="M.12,0A.111.111,0,0,0,0,.1V5.219a.111.111,0,0,0,.12.1.111.111,0,0,0,.12-.1V.1A.111.111,0,0,0,.12,0Z" transform="translate(16.656 12.463)" fill="#fff"/>
      <path id="Pfad_28" data-name="Pfad 28" d="M.12,0A.135.135,0,0,0,.035.029a.086.086,0,0,0,0,.139L4.607,3.91a.14.14,0,0,0,.17,0,.086.086,0,0,0,0-.139L.2.029A.135.135,0,0,0,.12,0Z" transform="translate(16.656 12.463)" fill="#fff"/>
      <path id="Pfad_29" data-name="Pfad 29" d="M.12,0A.111.111,0,0,0,0,.1V5.613a.111.111,0,0,0,.12.1.111.111,0,0,0,.12-.1V.1A.111.111,0,0,0,.12,0Z" transform="translate(21.229 10.691)" fill="#fff"/>
      <path id="Pfad_30" data-name="Pfad 30" d="M.12,0A.136.136,0,0,0,.04.025.087.087,0,0,0,.031.164L4.362,4.1a.14.14,0,0,0,.17.007.087.087,0,0,0,.009-.139L.21.033A.133.133,0,0,0,.12,0Z" transform="translate(21.229 10.691)" fill="#fff"/>
    </g>
    <g id="Ellipse_3" data-name="Ellipse 3" transform="translate(127 173)" fill="#fff" stroke="#707070" stroke-width="0.5" opacity="0.5">
      <ellipse cx="21" cy="17" rx="21" ry="17" stroke="none"/>
      <ellipse cx="21" cy="17" rx="20.75" ry="16.75" fill="none"/>
    </g>
    <g id="Gruppe_7" data-name="Gruppe 7" transform="translate(132.072 174.561)">
      <path id="Pfad_31" data-name="Pfad 31" d="M9.465,12.771a.373.373,0,0,1-.253-.061L5.859,10.364a3.2,3.2,0,0,1-.015.836,2.077,2.077,0,0,1-.532,1.119,2.542,2.542,0,0,1-1.86.711A9.752,9.752,0,0,1,.229,12.4a.374.374,0,0,1-.174-.551.523.523,0,0,1,.6-.289,9.033,9.033,0,0,0,2.952.592,1.661,1.661,0,0,0,1.127-.364,1.533,1.533,0,0,0,.23-1.341A4.39,4.39,0,0,0,4.7,9.489a.49.49,0,0,1,.16-.545.452.452,0,0,1,.544-.07L9.158,11.5l.429-4.3a.561.561,0,0,1,.3-.428.407.407,0,0,1,.465.036l2.92,2.712.987-4.83a.569.569,0,0,1,.323-.394.4.4,0,0,1,.444.053l2.951,2.862.464-4.65a.562.562,0,0,1,.31-.431.4.4,0,0,1,.467.046l3.125,3.1L22.666.5A.56.56,0,0,1,23,.043a.385.385,0,0,1,.48.1,22.113,22.113,0,0,0,1.59,1.9A6.8,6.8,0,0,0,28,4.183a1.49,1.49,0,0,0,1.045-.164,3.064,3.064,0,0,0,.866-.745A5.992,5.992,0,0,0,30.714,2a.533.533,0,0,1,.585-.323.366.366,0,0,1,.211.532,7.132,7.132,0,0,1-.976,1.548,4.2,4.2,0,0,1-1.2,1.021,2.414,2.414,0,0,1-1.67.27A7.251,7.251,0,0,1,24.369,2.7c-.346-.369-.657-.728-.912-1.037l-.31,4.594a.559.559,0,0,1-.3.442.4.4,0,0,1-.474-.043l-3.161-3.13-.463,4.636a.561.561,0,0,1-.308.43.4.4,0,0,1-.467-.042L14.935,5.6l-.983,4.809a.569.569,0,0,1-.319.392.4.4,0,0,1-.443-.047L10.362,8.131l-.415,4.158a.559.559,0,0,1-.281.415.508.508,0,0,1-.2.067Z" transform="translate(9.215) rotate(45)" fill="#1065a0"/>
      <path id="Pfad_32" data-name="Pfad 32" d="M.12,3.742a.135.135,0,0,1-.083-.027.086.086,0,0,1,0-.139L4.124.031a.14.14,0,0,1,.17,0,.086.086,0,0,1,0,.139L.208,3.711a.134.134,0,0,1-.088.031Z" transform="translate(7.512 12.17)" fill="#fff"/>
      <path id="Pfad_33" data-name="Pfad 33" d="M.361,5.121a.112.112,0,0,1-.12-.095L0,.1A.109.109,0,0,1,.116,0,.113.113,0,0,1,.241.1l.24,4.923a.109.109,0,0,1-.115.1Z" transform="translate(11.603 12.17)" fill="#fff"/>
      <path id="Pfad_34" data-name="Pfad 34" d="M.12,3.545A.133.133,0,0,1,.029,3.51a.087.087,0,0,1,.014-.139L4.855.023a.14.14,0,0,1,.17.011.087.087,0,0,1-.014.139L.2,3.522a.137.137,0,0,1-.08.023Z" transform="translate(11.844 13.745)" fill="#fff"/>
      <path id="Pfad_35" data-name="Pfad 35" d="M1.083,6.105A.115.115,0,0,1,.964,6.02L0,.111A.1.1,0,0,1,.1,0,.118.118,0,0,1,.24.085L1.2,5.994a.1.1,0,0,1-.1.111Z" transform="translate(6.549 9.806)" fill="#fff"/>
      <path id="Pfad_36" data-name="Pfad 36" d="M.12,5.318a.111.111,0,0,1-.12-.1V.1A.111.111,0,0,1,.12,0,.111.111,0,0,1,.24.1V5.219a.111.111,0,0,1-.12.1Z" transform="translate(16.657 13.745)" fill="#fff"/>
      <path id="Pfad_37" data-name="Pfad 37" d="M.12,3.939A.135.135,0,0,1,.035,3.91a.086.086,0,0,1,0-.139L4.607.029a.14.14,0,0,1,.17,0,.086.086,0,0,1,0,.139L.2,3.91a.135.135,0,0,1-.085.029Z" transform="translate(16.657 15.124)" fill="#fff"/>
      <path id="Pfad_38" data-name="Pfad 38" d="M.12,5.711a.111.111,0,0,1-.12-.1V.1A.111.111,0,0,1,.12,0,.111.111,0,0,1,.24.1V5.613a.111.111,0,0,1-.12.1Z" transform="translate(21.229 15.124)" fill="#fff"/>
      <path id="Pfad_39" data-name="Pfad 39" d="M.12,4.136a.136.136,0,0,1-.08-.025.087.087,0,0,1-.009-.139L4.362.033a.14.14,0,0,1,.17-.007.087.087,0,0,1,.009.139L.21,4.1a.133.133,0,0,1-.09.036Z" transform="translate(21.229 16.7)" fill="#fff"/>
    </g>
    <text id="SYKVL_FNLDP_SYKVL_FNLDD_SYKVL_FNLPD" data-name="SYKVL……………………FNLDP
SYKVL……………………FNLDD
SYKVL……………………FNLPD" transform="translate(161 240.41)" fill="#707070" font-size="8" font-family="CourierNewPSMT, Courier New" letter-spacing="0.01em"><tspan x="0" y="0">SYKVL……………………FNLDP</tspan><tspan x="0" y="10">SYKVL……………………FNLDD</tspan><tspan x="0" y="20">SYKVL……………………FNLPD</tspan></text>
    <g id="Ellipse_4" data-name="Ellipse 4" transform="translate(156 158)" fill="#5b666a" stroke="#5b666a" stroke-width="2">
      <circle cx="4" cy="4" r="4" stroke="none"/>
      <circle cx="4" cy="4" r="3" fill="none"/>
    </g>
    <g id="Ellipse_5" data-name="Ellipse 5" transform="translate(142 158)" fill="#5b666a" stroke="#5b666a" stroke-width="2">
      <circle cx="4" cy="4" r="4" stroke="none"/>
      <circle cx="4" cy="4" r="3" fill="none"/>
    </g>
    <g id="Ellipse_6" data-name="Ellipse 6" transform="translate(128 158)" fill="#5b666a" stroke="#5b666a" stroke-width="2">
      <circle cx="4" cy="4" r="4" stroke="none"/>
      <circle cx="4" cy="4" r="3" fill="none"/>
    </g>
  </g>
</svg>
