<?xml version="1.0" standalone="no"?><!DOCTYPE svg PUBLIC "-//W3C//DTD SVG 1.1//EN" 	"http://www.w3.org/Graphics/SVG/1.1/DTD/svg11.dtd"><svg width="1020" height="859" version="1.1"	xmlns="http://www.w3.org/2000/svg"><title>Krona (snapshot) - all</title><defs>	<style type="text/css">	text {font-size: 16px; font-family: sans-serif; dominant-baseline:central}	path {stroke-width:0.39999999999999997;}	path.wedge {stroke:none}	path.line {fill:none;stroke:black;}	line {stroke:black;stroke-width:0.39999999999999997;}	line.tick {stroke-width:0.7999999999999999;}	line.pattern {stroke-width:0.26666666666666666;}	circle {fill:none;stroke:black;stroke-width:0.39999999999999997;}	rect {stroke:black;stroke-width:0.39999999999999997;}	.highlight {stroke:black;stroke-width:2;}	.searchHighlight {fill:rgb(255, 255, 100);stroke:none;}	</style><pattern id="hiddenPattern" patternUnits="userSpaceOnUse" x="0" y="0" width="9.6" height="9.6"><line class="pattern" x1="0" y1="0" x2="4.8" y2="4.8"/><line class="pattern" x1="4.8" y1="9.6" x2="9.6" y2="4.8"/></pattern></defs><path class="wedge" fill="rgb(212,127,127)" d=" M 435,528.285 L 435,824.64 A 395.14,395.14 0 0,1 44.781600018369545,367.3291071660035 L 337.4454000045924,413.9572767915009 A 98.785,98.785 0 0 0 435,528.285 Z "/><path class="wedge" fill="rgb(221,153,153)" d=" M 435,658.5630571187718 L 435,824.64 A 395.14,395.14 0 0,1 44.781600018369545,367.3291071660035 L 208.78999938303397,393.4594706272238 A 229.06305711877178,229.06305711877178 0 0 0 435,658.5630571187718 Z "/><path class="wedge" fill="rgb(212,178,127)" d=" M 337.4454000045924,413.9572767915009 L 44.781600018369545,367.3291071660035 A 395.14,395.14 0 0,1 228.50208529268852,92.61095176374181 L 383.3755213231721,345.2777379409355 A 98.785,98.785 0 0 0 337.4454000045924,413.9572767915009 Z "/><path class="wedge" fill="rgb(221,194,153)" d=" M 208.78999938303397,393.4594706272238 L 44.781600018369545,367.3291071660035 A 395.14,395.14 0 0,1 228.50208529268852,92.61095176374181 L 315.2929502669733,234.20507845616572 A 229.06305711877178,229.06305711877178 0 0 0 208.78999938303397,393.4594706272238 Z "/><path class="wedge" fill="rgb(196,212,127)" d=" M 383.3755213231721,345.2777379409355 L 228.50208529268852,92.61095176374181 A 395.14,395.14 0 0,1 517.8043926150236,43.13352608739848 L 455.70109815375594,332.9083815218496 A 98.785,98.785 0 0 0 383.3755213231721,345.2777379409355 Z "/><path class="wedge" fill="rgb(208,221,153)" d=" M 315.2929502669733,234.20507845616572 L 228.50208529268852,92.61095176374181 A 395.14,395.14 0 0,1 414.46436421964415,34.893984760626665 L 423.09547119571306,200.74649438632508 A 229.06305711877178,229.06305711877178 0 0 0 315.2929502669733,234.20507845616572 Z "/><path class="wedge" fill="rgb(194,221,153)" d=" M 423.09547119571306,200.74649438632508 L 414.46436421964415,34.893984760626665 A 395.14,395.14 0 0,1 478.70836239463415,36.78483775542952 L 460.3377818286432,201.8426237773048 A 229.06305711877178,229.06305711877178 0 0 0 423.09547119571306,200.74649438632508 Z "/><path class="wedge" fill="rgb(189,221,153)" d=" M 460.3377818286432,201.8426237773048 L 478.70836239463415,36.78483775542952 A 395.14,395.14 0 0,1 517.8043926150236,43.13352608739848 L 483.0017900371017,205.52296481596218 A 229.06305711877178,229.06305711877178 0 0 0 460.3377818286432,201.8426237773048 Z "/><path class="wedge" fill="rgb(148,212,127)" d=" M 455.70109815375594,332.9083815218496 L 517.8043926150236,43.13352608739848 A 395.14,395.14 0 0,1 756.0979776053003,199.21385543679355 L 515.2744944013251,371.92846385919836 A 98.785,98.785 0 0 0 455.70109815375594,332.9083815218496 Z "/><path class="wedge" fill="rgb(127,212,152)" d=" M 515.2744944013251,371.92846385919836 L 756.0979776053003,199.21385543679355 A 395.14,395.14 0 0,1 825.8419922436772,371.3780876175488 L 532.7104980609193,414.9695219043872 A 98.785,98.785 0 0 0 515.2744944013251,371.92846385919836 Z "/><path class="wedge" fill="rgb(153,221,172)" d=" M 621.1408219489928,296.00288939175107 L 756.0979776053003,199.21385543679355 A 395.14,395.14 0 0,1 825.8419922436772,371.3780876175488 L 661.571497681146,395.80666868473537 A 229.06305711877178,229.06305711877178 0 0 0 621.1408219489928,296.00288939175107 Z "/><path class="wedge" fill="rgb(127,212,196)" d=" M 532.7104980609193,414.9695219043872 L 825.8419922436772,371.3780876175488 A 395.14,395.14 0 0,1 810.4511929631919,552.6747591940652 L 528.862798240798,460.2936897985163 A 98.785,98.785 0 0 0 532.7104980609193,414.9695219043872 Z "/><path class="wedge" fill="rgb(153,221,208)" d=" M 661.571497681146,395.80666868473537 L 825.8419922436772,371.3780876175488 A 395.14,395.14 0 0,1 810.4511929631919,552.6747591940652 L 652.6494357924752,500.9045323198389 A 229.06305711877178,229.06305711877178 0 0 0 661.571497681146,395.80666868473537 Z "/><path class="wedge" fill="rgb(127,186,212)" d=" M 528.862798240798,460.2936897985163 L 810.4511929631919,552.6747591940652 A 395.14,395.14 0 0,1 742.9998799898003,677.0311970767899 L 511.9999699974501,491.38279926919745 A 98.785,98.785 0 0 0 528.862798240798,460.2936897985163 Z "/><path class="wedge" fill="rgb(153,200,221)" d=" M 652.6494357924752,500.9045323198389 L 810.4511929631919,552.6747591940652 A 395.14,395.14 0 0,1 763.0487772003446,649.7716944533697 L 625.170207495029,557.1917237642883 A 229.06305711877178,229.06305711877178 0 0 0 652.6494357924752,500.9045323198389 Z "/><path class="wedge" fill="rgb(153,186,221)" d=" M 625.170207495029,557.1917237642883 L 763.0487772003446,649.7716944533697 A 395.14,395.14 0 0,1 742.9998799898003,677.0311970767899 L 613.5478415313015,572.9940849690709 A 229.06305711877178,229.06305711877178 0 0 0 625.170207495029,557.1917237642883 Z "/><path class="wedge" fill="rgb(127,147,212)" d=" M 511.9999699974501,491.38279926919745 L 742.9998799898003,677.0311970767899 A 395.14,395.14 0 0,1 671.4746959748251,746.0680618186459 L 494.11867399370624,508.6420154546615 A 98.785,98.785 0 0 0 511.9999699974501,491.38279926919745 Z "/><path class="wedge" fill="rgb(153,168,221)" d=" M 613.5478415313015,572.9940849690709 L 742.9998799898003,677.0311970767899 A 395.14,395.14 0 0,1 697.8496402673622,724.5350592918039 L 587.3742019593344,600.532121877306 A 229.06305711877178,229.06305711877178 0 0 0 613.5478415313015,572.9940849690709 Z "/><path class="wedge" fill="rgb(153,157,221)" d=" M 587.3742019593344,600.532121877306 L 697.8496402673622,724.5350592918039 A 395.14,395.14 0 0,1 671.4746959748251,746.0680618186459 L 572.0846201124299,613.0148251919405 A 229.06305711877178,229.06305711877178 0 0 0 587.3742019593344,600.532121877306 Z "/><path class="wedge" fill="rgb(144,127,212)" d=" M 494.11867399370624,508.6420154546615 L 671.4746959748251,746.0680618186459 A 395.14,395.14 0 0,1 590.5143407908248,792.7504775060801 L 473.87858519770623,520.31261937652 A 98.785,98.785 0 0 0 494.11867399370624,508.6420154546615 Z "/><path class="wedge" fill="rgb(166,153,221)" d=" M 572.0846201124299,613.0148251919405 L 671.4746959748251,746.0680618186459 A 395.14,395.14 0 0,1 632.3778334987828,771.8121535139044 L 549.4201294445288,627.9387011509978 A 229.06305711877178,229.06305711877178 0 0 0 572.0846201124299,613.0148251919405 Z "/><path class="wedge" fill="rgb(174,153,221)" d=" M 549.4201294445288,627.9387011509978 L 632.3778334987828,771.8121535139044 A 395.14,395.14 0 0,1 590.5143407908248,792.7504775060801 L 525.151820436698,640.0766687184197 A 229.06305711877178,229.06305711877178 0 0 0 549.4201294445288,627.9387011509978 Z "/><path class="wedge" fill="rgb(178,127,212)" d=" M 473.87858519770623,520.31261937652 L 590.5143407908248,792.7504775060801 A 395.14,395.14 0 0,1 541.3465970399781,810.0601409738236 L 461.5866492599945,524.6400352434559 A 98.785,98.785 0 0 0 473.87858519770623,520.31261937652 Z "/><path class="wedge" fill="rgb(194,153,221)" d=" M 525.151820436698,640.0766687184197 L 590.5143407908248,792.7504775060801 A 395.14,395.14 0 0,1 541.3465970399781,810.0601409738236 L 496.64922972150504,650.1110981146298 A 229.06305711877178,229.06305711877178 0 0 0 525.151820436698,640.0766687184197 Z "/><path class="wedge" fill="rgb(209,127,212)" d=" M 461.5866492599945,524.6400352434559 L 541.3465970399781,810.0601409738236 A 395.14,395.14 0 0,1 490.547861002249,820.716122799246 L 448.88696525056224,527.3040306998115 A 98.785,98.785 0 0 0 461.5866492599945,524.6400352434559 Z "/><path class="wedge" fill="rgb(218,153,221)" d=" M 496.64922972150504,650.1110981146298 L 541.3465970399781,810.0601409738236 A 395.14,395.14 0 0,1 490.547861002249,820.716122799246 L 467.20115113019125,656.288381542107 A 229.06305711877178,229.06305711877178 0 0 0 496.64922972150504,650.1110981146298 Z "/><path class="wedge" fill="rgb(212,127,188)" d=" M 448.88696525056224,527.3040306998115 L 490.547861002249,820.716122799246 A 395.14,395.14 0 0,1 459.0300686939459,823.9086401165221 L 441.00751717348646,528.1021600291306 A 98.785,98.785 0 0 0 448.88696525056224,527.3040306998115 Z "/><path class="wedge" fill="rgb(221,153,201)" d=" M 467.20115113019125,656.288381542107 L 490.547861002249,820.716122799246 A 395.14,395.14 0 0,1 459.0300686939459,823.9086401165221 L 448.9302550939144,658.1390870555955 A 229.06305711877178,229.06305711877178 0 0 0 467.20115113019125,656.288381542107 Z "/><path class="wedge" fill="rgb(212,127,166)" d=" M 441.00751717348646,528.1021600291306 L 459.0300686939459,823.9086401165221 A 395.14,395.14 0 0,1 435.0000000000001,824.64 L 435.00000000000006,528.285 A 98.785,98.785 0 0 0 441.00751717348646,528.1021600291306 Z "/><rect fill="rgb(212,127,166)" x="975.115" y="814.115" width="32" height="32"/><path class="line" d="M 447.0205978295062,824.4571177075067 L 447.8045498618653,850.2151906014744 A 420.90999999999997,420.90999999999997 0 0,0 564.1233901158112,830.115 L 817.6649928792318,830.115"/><text x="964.4483333333334" y="830.115" style="font-color:black;font-weight:normal" text-anchor="end">Pseudomonas&#160;&#160;&#160;1%</text><path class="wedge" fill="rgb(212,127,166)" d=" M 448.9302550939144,658.1390870555955 L 459.0300686939459,823.9086401165221 A 395.14,395.14 0 0,1 435.0000000000001,824.64 L 435.00000000000006,658.5630571187718 A 229.06305711877178,229.06305711877178 0 0 0 448.9302550939144,658.1390870555955 Z "/><path class="wedge" fill="url(#hiddenPattern)" d=" M 448.9302550939144,658.1390870555955 L 459.0300686939459,823.9086401165221 A 395.14,395.14 0 0,1 435.0000000000001,824.64 L 435.00000000000006,658.5630571187718 A 229.06305711877178,229.06305711877178 0 0 0 448.9302550939144,658.1390870555955 Z "/><circle cx="435" cy="429.5" r="98.785"/><circle cx="435" cy="429.5" r="395.14"/><text x="435" y="429.5" text-anchor="middle" style="font-color:black;font-weight:bold" transform="rotate(360,435,429.5)">all</text><path class="line" d=" M 337.4454000045924,413.9572767915009 A 98.785,98.785 0 0 0 435,528.285"/><line x1="44.781600018369545" y1="367.3291071660035" x2="337.4454000045924" y2="413.9572767915009"/><text x="435" y="578.9486888795224" text-anchor="middle" style="font-color:black;font-weight:normal" transform="rotate(49.52623502440467,435,429.5)">Salmonella</text><path class="line" d=" M 208.78999938303397,393.4594706272238 A 229.06305711877178,229.06305711877178 0 0 0 435,658.5630571187718"/><text x="122.89847144061412" y="429.5" text-anchor="end" style="font-color:black;font-weight:normal" transform="rotate(-40.47376497559533,435,429.5)">enterica&#160;&#160;&#160;28%</text><path class="line" d=" M 383.3755213231721,345.2777379409355 A 98.785,98.785 0 0 0 337.4454000045924,413.9572767915009"/><line x1="228.50208529268852" y1="92.61095176374181" x2="383.3755213231721" y2="345.2777379409355"/><text x="435" y="251.10063176075056" text-anchor="middle" style="font-color:black;font-weight:normal" transform="rotate(303.773018044668,435,429.5)">Escherichia</text><path class="line" d=" M 315.2929502669733,234.20507845616572 A 229.06305711877178,229.06305711877178 0 0 0 208.78999938303397,393.4594706272238"/><text x="122.89847144061412" y="429.5" text-anchor="end" style="font-color:black;font-weight:normal" transform="rotate(33.77301804466795,435,429.5)">coli&#160;&#160;&#160;14%</text><path class="line" d=" M 455.70109815375594,332.9083815218496 A 98.785,98.785 0 0 0 383.3755213231721,345.2777379409355"/><line x1="517.8043926150236" y1="43.13352608739848" x2="455.70109815375594" y2="332.9083815218496"/><text x="435" y="222.14995240102348" text-anchor="middle" style="font-color:black;font-weight:normal" transform="rotate(350.2949822511463,435,429.5)">Streptococcus</text><path class="line" d=" M 423.09547119571306,200.74649438632508 A 229.06305711877178,229.06305711877178 0 0 0 315.2929502669733,234.20507845616572"/><line x1="414.46436421964415" y1="34.893984760626665" x2="423.09547119571306" y2="200.74649438632508"/><text x="122.89847144061412" y="429.5" text-anchor="end" style="font-color:black;font-weight:normal" transform="rotate(72.75726593699156,435,429.5)">pneumoniae&#160;&#160;&#160;8%</text><path class="line" d=" M 460.3377818286432,201.8426237773048 A 229.06305711877178,229.06305711877178 0 0 0 423.09547119571306,200.74649438632508"/><line x1="478.70836239463415" y1="36.78483775542952" x2="460.3377818286432" y2="201.8426237773048"/><text x="747.1015285593859" y="429.5" text-anchor="start" style="font-color:black;font-weight:normal" transform="rotate(271.6858637775477,435,429.5)">3%&#160;&#160;&#160;pyogenes</text><path class="line" d=" M 483.0017900371017,205.52296481596218 A 229.06305711877178,229.06305711877178 0 0 0 460.3377818286432,201.8426237773048"/><text x="747.1015285593859" y="429.5" text-anchor="start" style="font-color:black;font-weight:normal" transform="rotate(279.22358009170244,435,429.5)">2%&#160;&#160;&#160;agalactiae</text><path class="line" d=" M 515.2744944013251,371.92846385919836 A 98.785,98.785 0 0 0 455.70109815375594,332.9083815218496"/><line x1="756.0979776053003" y1="199.21385543679355" x2="515.2744944013251" y2="371.92846385919836"/><text x="681.9625" y="429.5" text-anchor="start" style="font-color:black;font-weight:normal" transform="rotate(303.2244675343884,435,429.5)">12%&#160;&#160;&#160;Other_species</text><path class="line" d=" M 532.7104980609193,414.9695219043872 A 98.785,98.785 0 0 0 515.2744944013251,371.92846385919836"/><line x1="825.8419922436772" y1="371.3780876175488" x2="532.7104980609193" y2="414.9695219043872"/><text x="435" y="309.0019904802047" text-anchor="middle" style="font-color:black;font-weight:normal" transform="rotate(427.9470492530691,435,429.5)">Mycobacterium</text><line x1="559.9780095197953" y1="429.5" x2="571.1780095197953" y2="429.5" class="tick" transform="rotate(337.94704925306905,435,429.5)"/><path class="line" d=" M 661.571497681146,395.80666868473537 A 229.06305711877178,229.06305711877178 0 0 0 621.1408219489928,296.00288939175107"/><text x="747.1015285593859" y="429.5" text-anchor="start" style="font-color:black;font-weight:normal" transform="rotate(337.94704925306905,435,429.5)">8%&#160;&#160;&#160;tuberculosis</text><path class="line" d=" M 528.862798240798,460.2936897985163 A 98.785,98.785 0 0 0 532.7104980609193,414.9695219043872"/><line x1="810.4511929631919" y1="552.6747591940652" x2="528.862798240798" y2="460.2936897985163"/><text x="435" y="578.9486888795224" text-anchor="middle" style="font-color:black;font-weight:normal" transform="rotate(274.8523702115072,435,429.5)">Staphylococcus</text><line x1="592.2886888795224" y1="429.5" x2="603.4886888795224" y2="429.5" class="tick" transform="rotate(364.8523702115072,435,429.5)"/><path class="line" d=" M 652.6494357924752,500.9045323198389 A 229.06305711877178,229.06305711877178 0 0 0 661.571497681146,395.80666868473537"/><text x="747.1015285593859" y="429.5" text-anchor="start" style="font-color:black;font-weight:normal" transform="rotate(364.8523702115072,435,429.5)">7%&#160;&#160;&#160;aureus</text><path class="line" d=" M 511.9999699974501,491.38279926919745 A 98.785,98.785 0 0 0 528.862798240798,460.2936897985163"/><line x1="742.9998799898003" y1="677.0311970767899" x2="511.9999699974501" y2="491.38279926919745"/><text x="435" y="607.8993682392495" text-anchor="middle" style="font-color:black;font-weight:normal" transform="rotate(298.47553986096733,435,429.5)">Campylobacter_D</text><line x1="597.7193682392494" y1="429.5" x2="608.9193682392495" y2="429.5" class="tick" transform="rotate(388.4755398609674,435,429.5)"/><path class="line" d=" M 625.170207495029,557.1917237642883 A 229.06305711877178,229.06305711877178 0 0 0 652.6494357924752,500.9045323198389"/><line x1="763.0487772003446" y1="649.7716944533697" x2="625.170207495029" y2="557.1917237642883"/><text x="747.1015285593859" y="429.5" text-anchor="start" style="font-color:black;font-weight:normal" transform="rotate(386.02148350835677,435,429.5)">4%&#160;&#160;&#160;jejuni</text><path class="line" d=" M 613.5478415313015,572.9940849690709 A 229.06305711877178,229.06305711877178 0 0 0 625.170207495029,557.1917237642883"/><text x="747.1015285593859" y="429.5" text-anchor="start" style="font-color:black;font-weight:normal" transform="rotate(396.33384484543706,435,429.5)">1%&#160;&#160;&#160;coli</text><path class="line" d=" M 494.11867399370624,508.6420154546615 A 98.785,98.785 0 0 0 511.9999699974501,491.38279926919745"/><line x1="671.4746959748251" y1="746.0680618186459" x2="494.11867399370624" y2="508.6420154546615"/><text x="435" y="636.8500475989765" text-anchor="middle" style="font-color:black;font-weight:normal" transform="rotate(316.0141805945866,435,429.5)">Neisseria</text><line x1="626.6700475989765" y1="429.5" x2="637.8700475989765" y2="429.5" class="tick" transform="rotate(406.0141805945866,435,429.5)"/><path class="line" d=" M 587.3742019593344,600.532121877306 A 229.06305711877178,229.06305711877178 0 0 0 613.5478415313015,572.9940849690709"/><line x1="697.8496402673622" y1="724.5350592918039" x2="587.3742019593344" y2="600.532121877306"/><text x="747.1015285593859" y="429.5" text-anchor="start" style="font-color:black;font-weight:normal" transform="rotate(403.54487132081056,435,429.5)">3%&#160;&#160;&#160;meningitidis</text><path class="line" d=" M 572.0846201124299,613.0148251919405 A 229.06305711877178,229.06305711877178 0 0 0 587.3742019593344,600.532121877306"/><text x="747.1015285593859" y="429.5" text-anchor="start" style="font-color:black;font-weight:normal" transform="rotate(410.77115071734954,435,429.5)">1%&#160;&#160;&#160;gonorrhoeae</text><path class="line" d=" M 473.87858519770623,520.31261937652 A 98.785,98.785 0 0 0 494.11867399370624,508.6420154546615"/><line x1="590.5143407908248" y1="792.7504775060801" x2="473.87858519770623" y2="520.31261937652"/><text x="435" y="549.9980095197953" text-anchor="middle" style="font-color:black;font-weight:normal" transform="rotate(330.0318924715279,435,429.5)">Listeria</text><line x1="563.3380095197953" y1="429.5" x2="574.5380095197953" y2="429.5" class="tick" transform="rotate(420.03189247152795,435,429.5)"/><path class="line" d=" M 549.4201294445288,627.9387011509978 A 229.06305711877178,229.06305711877178 0 0 0 572.0846201124299,613.0148251919405"/><line x1="632.3778334987828" y1="771.8121535139044" x2="549.4201294445288" y2="627.9387011509978"/><text x="747.1015285593859" y="429.5" text-anchor="start" style="font-color:black;font-weight:normal" transform="rotate(416.6363148942464,435,429.5)">2%&#160;&#160;&#160;monocytogenes</text><path class="line" d=" M 525.151820436698,640.0766687184197 A 229.06305711877178,229.06305711877178 0 0 0 549.4201294445288,627.9387011509978"/><text x="747.1015285593859" y="429.5" text-anchor="start" style="font-color:black;font-weight:normal" transform="rotate(423.4277473746487,435,429.5)">2%&#160;&#160;&#160;monocytogenes_B</text><path class="line" d=" M 461.5866492599945,524.6400352434559 A 98.785,98.785 0 0 0 473.87858519770623,520.31261937652"/><line x1="541.3465970399781" y1="810.0601409738236" x2="461.5866492599945" y2="524.6400352434559"/><text x="435" y="578.9486888795224" text-anchor="middle" style="font-color:black;font-weight:normal" transform="rotate(340.60521742345804,435,429.5)">Klebsiella</text><line x1="592.2886888795224" y1="429.5" x2="603.4886888795224" y2="429.5" class="tick" transform="rotate(430.60521742345804,435,429.5)"/><path class="line" d=" M 496.64922972150504,650.1110981146298 A 229.06305711877178,229.06305711877178 0 0 0 525.151820436698,640.0766687184197"/><text x="747.1015285593859" y="429.5" text-anchor="start" style="font-color:black;font-weight:normal" transform="rotate(430.60521742345804,435,429.5)">2%&#160;&#160;&#160;pneumoniae</text><path class="line" d=" M 448.88696525056224,527.3040306998115 A 98.785,98.785 0 0 0 461.5866492599945,524.6400352434559"/><line x1="490.547861002249" y1="820.716122799246" x2="448.88696525056224" y2="527.3040306998115"/><text x="435" y="607.8993682392495" text-anchor="middle" style="font-color:black;font-weight:normal" transform="rotate(348.1529174678302,435,429.5)">Clostridioides</text><line x1="597.7193682392494" y1="429.5" x2="608.9193682392495" y2="429.5" class="tick" transform="rotate(438.1529174678302,435,429.5)"/><path class="line" d=" M 467.20115113019125,656.288381542107 A 229.06305711877178,229.06305711877178 0 0 0 496.64922972150504,650.1110981146298"/><text x="747.1015285593859" y="429.5" text-anchor="start" style="font-color:black;font-weight:normal" transform="rotate(438.1529174678302,435,429.5)">2%&#160;&#160;&#160;difficile</text><path class="line" d=" M 441.00751717348646,528.1021600291306 A 98.785,98.785 0 0 0 448.88696525056224,527.3040306998115"/><line x1="459.0300686939459" y1="823.9086401165221" x2="441.00751717348646" y2="528.1021600291306"/><text x="435" y="636.8500475989765" text-anchor="middle" style="font-color:black;font-weight:normal" transform="rotate(354.2160922940393,435,429.5)">Enterococcus_B</text><line x1="626.6700475989765" y1="429.5" x2="637.8700475989765" y2="429.5" class="tick" transform="rotate(444.21609229403936,435,429.5)"/><path class="line" d=" M 448.9302550939144,658.1390870555955 A 229.06305711877178,229.06305711877178 0 0 0 467.20115113019125,656.288381542107"/><text x="747.1015285593859" y="429.5" text-anchor="start" style="font-color:black;font-weight:normal" transform="rotate(444.21609229403936,435,429.5)">1%&#160;&#160;&#160;faecium</text><path class="line" d=" M 435.00000000000006,528.285 A 98.785,98.785 0 0 0 441.00751717348646,528.1021600291306"/><line x1="435.0000000000001" y1="824.64" x2="435.00000000000006" y2="528.285"/></svg>